<mxfile host="app.diagrams.net" agent="Mozilla/5.0 (Windows NT 10.0; Win64; x64) AppleWebKit/537.36 (KHTML, like Gecko) Chrome/131.0.0.0 Safari/537.36" version="24.9.1" pages="2">
  <diagram name="Intial Thought Process" id="_71_lUSief4PWhd1E1PP">
    <mxGraphModel dx="1644" dy="500" grid="1" gridSize="7" guides="1" tooltips="1" connect="1" arrows="1" fold="1" page="1" pageScale="1" pageWidth="850" pageHeight="1100" math="0" shadow="0">
      <root>
        <mxCell id="0" />
        <mxCell id="1" parent="0" />
        <mxCell id="prM5BcyBm9Gt86h00Z2--13" value="" style="endArrow=classic;html=1;rounded=0;" parent="1" edge="1">
          <mxGeometry width="50" height="50" relative="1" as="geometry">
            <mxPoint x="300" y="200" as="sourcePoint" />
            <mxPoint x="476" y="200" as="targetPoint" />
          </mxGeometry>
        </mxCell>
        <mxCell id="prM5BcyBm9Gt86h00Z2--14" value="" style="endArrow=classic;html=1;rounded=0;" parent="1" edge="1">
          <mxGeometry width="50" height="50" relative="1" as="geometry">
            <mxPoint x="300" y="320" as="sourcePoint" />
            <mxPoint x="700" y="320" as="targetPoint" />
          </mxGeometry>
        </mxCell>
        <mxCell id="prM5BcyBm9Gt86h00Z2--15" value="" style="endArrow=classic;html=1;rounded=0;" parent="1" edge="1">
          <mxGeometry width="50" height="50" relative="1" as="geometry">
            <mxPoint x="329" y="448" as="sourcePoint" />
            <mxPoint x="525" y="448" as="targetPoint" />
          </mxGeometry>
        </mxCell>
        <mxCell id="prM5BcyBm9Gt86h00Z2--18" value="" style="shape=image;verticalLabelPosition=bottom;labelBackgroundColor=default;verticalAlign=top;aspect=fixed;imageAspect=0;image=data:image/png,iVBORw0KGgoAAAANSUhEUgAAAOQAAADdCAMAAACc/C7aAAAAYFBMVEX///8ArdQAq9MAp9EAqdIAptH4/f7k9PnP6/QArtR+zOTx+vzs+Pv0+/3o9vrg8vhxx+GW1ei14e8ztdjW7vbB5vGi2etIu9tewd7R7PWg2Oqy3+6P0udkw999y+M+uNmTwQumAAAK8ElEQVR4nN1da5eiMAxd2qLgY0RB8YH6///lFp1xQHnctCmFuWfPnpkPow1t05vkNvz7NzQOeSDyw+BfOyTmsQo0ZLr0PRKHCETwgEh9j8QdFt82BoHa+h6LK8xl8IJa+x6NI+Ti10hx9T0aN9hXJlI7n5Pv8ThBIKpGBn/S92xVzcZAXnyPiB9LWbdRz+vM95jYcRTBu5UL32Pixul9IssFO/c9KmaknzYG4u57VLw4NEyknsq973FxYvaxIZ9TGfseGCcS1WhkoArfI+PDpnGxPhbs34m58ubVWi7Yo++xcWHXOpF6KiPfo2NC0DqRwZ+hsEWL1/meyj+R8Fl1LNYS6i9Q2E/S+mbkzfcI7RGF3TbqBbvxPUZrNJHWN0yewp57duRjKne+R2mHdc+GfEAI38O0QxtprWPaFLadtL4t2JXvkVrgjtk4aQq7gxZriXCyFHbWSVrrmCyFLXAbA3n2PVozfPVynSrENCtA7aFyE1Tie7wm2IPHxw/CKVLYmDSRwSR9z3t9px9qchQWIq11TI/CXskTOb0KUEY6Pn4gv3yPmwQgVG6ayklR2Avx+HhN5YQqQBTSWp/KCVWAFoY2TknENDfyOt9WToXC0kjrm5ETETFRSWsdMvM9fghk0lrHJCgsnbS+TeUEREwfoiQqpkBh++o7gJWjrwBFthOpEY5dxGRGWusQuW8rutEsSqJi3BS2RZRExbgp7M3y+PjBmCksWt/pRzheERNa3+nHeHX4XaIkKkYrYjINlRsxUgrbLUqiYpwipj5R0g/Q6RZjFDFhpFXIWGBPY4wiJoy0ikDHxHtsXY9QxISR1qfTxMjf+CgsOO7v4y/GnsjIKkBrcAV+E5mmWyINjyTwa9Q7QFHSi5JeIS81LhETRlorwcUKm/lwTCImjLRWw0Qs3TWmChAmSqp7SyxxOSIKi5GYsFZ9BFPQo6GwmCjpvY6MFRPGQmG/QJr29mdgWWgkOnxsStRHYhwr8I1DxGS8uWYggRhDBQhzk2HDUC+YlSPQ4WMHXvOiw0j950IfGktsNlRj9g0TwvivAIEktOUgmAaFzaiktQ6wzuf5GjsYKrfWNs4ToLCYf+waI+ibPVaAZgLbUx2SOeyU9VkBwjiL6PQbIF/yVgEC2Wf3CTAHzyBfIiYwjuhJR2ExjC8KC5LWXlYGRqN+KCyW8O+/JABedvISPtuQ1jqwDJEPCouSVsBhgBTWQxYWq+9g2Qssazu8Dh8UJWEbaY192OAiJoy0otcix1kBAkcFE2swCzsohQVFSQrO8o+RwmKiJEqwi/mxISksWN+h+Hw0eTtcBejuYAdh2pHhdPiYKInqC7HYNByqmSg4HKKuAdRzDURhwYVFVqiARc5BKOwKDJXJhZqNqw82AEhaDR44djANQWFZSWsdYAVogGvsqcMyOHbt0j2FpYmSqLDNVfOAKEqiAhXo8Rr1DqooiQqwAuSUwoL1HfMnDYqYnHZioouSqABFTA4prIkoiQrvIiYTURIVYPjsjMKC9R1LRuJXxITFtcKWW4IU1pGICSyyWcuNfYqYBlP8gVkyJxTWXJREBdg5xIGIia++0w+QwrLr8K1ESVScPFWA7ERJVPhpJgreceDKcIPrhrkTE+X+Dgd8iJjsRUlUeKCw2MnFeYNs+AoQ2CmJVWMM8is2CjvHDmf9XIs9WzQLKqEkl4gJ7pQklFTxbcdzfX5YCkvrlCSUCu8Fx+4EdUI8e8SgU5KQqb2dQ+rwzS6d65Ubby036HA6fPTSeYOdIjxapYGx3ODH1SEDWHVKEio+W0TwQ4mY+t+E0WemWhh7WzBfr2xFTAydkpS6mZo5jIiJp1OSnk3DRQvW0Ky2Plgx7IcwLF9gu8WOwnJ1StJQgdHjBkVMFv3wwRQoBiFzgxgXFDFZvE6Or1PS00yTB45xEfMKEGenpCdkSvf2oGrIlMKydkr6MZMcALoVMfF2SvqByqkRoEsREyhKIkMoYmIGbBRnVAGyb+/ZZmVIzJe6EzFxtPdsg8xJTx0VMdGdGhwqCw2lpP4nQ6nDKyll+Zvq+ntF87KuKOwBeHpP4+Jjsj3soiz7ms30BM1mq3l22h2K612bLdoOANrGdCNi6snTP6xLk+1u08k0vvbnJFWyyVARUrwhKGIiUtiOcFXbJ/JiP0e31TraHvWffD53ivtxocNvuz2lF+B9sTegoNk213NfHylF9gueZ6TKYcMeEKWBRWSRzNgvAllbIJKQM+XvxPQhShIqjBd7+2R1pO2sTKci+EOMY0pYh19/E4Z2Mup4YKsE7q+VZUvYRGCKG/Y9laWhF6m4MUu8ltv4NWDCVDKLmF6uTCjBkvD/wP7+XLWUMJBZh/8stQgZcM9hBVlemkl6IyNYAQJ99kqpQFlmv/uRHUVK+gpmEdPqdl+MsHU+mB8dQScmG4AVIH4R0zza7S7bBy67XTR3KZweXoe/2W2PaRlZlWGVeAZcmhVJmV6LS+ZGqDlkJ6blfpELqVriqGcElt4u/KfPEjtG7PvhR4WOnpBoU8ngumNuvjJIM9FdogkCnPzRcyrTM6ufdi5iOt2CxgC4x1KZ2tbVK3ArYpqd4/eAELczzNncOihiMqkAbW7dmaleM6VgohfOmolmR8TT9H2tPLJQYTedmKJ7Q4bGBELeOfiwgwrQJufMMisaJ28Eu4hpdQ2ZqwUqtjaTmcIerLxNM4TMLakQesER8j2ru5t6iAgTO2rLqMPfMfmbpu+3UTLgl477s2+Jw7KWrQcCdfh9abK55asy+yFzC6UqSycmu1eeYhDyakyCOChsMYCNgZWZ9iImk7e7m0GbaXaeoFrYtnh2hjVOYoI+Nk0oLXpBriV7/YUpE/kgVHohn5voq2ebOxLM6WGxNYRSCdHVgq1EmxPqG3cMoBPE/MEMPuEaFOqZJxuDMiEk72fQC53wU/zzrMwcEHIKlEz7a71REROmQr1rmHzbGDyr9nFyadmh6+h87JEIfeCN282pa/Xlo3ifzSMXn163uyhbz55YZtGhOMbSIFtYZz1f4Ac8KgJlPSAI0vsxz/N7GsTl74qQkkW+Rj2lXeXUPX4y/PSqjTMk4C7LHXGebD8rO6t5dCmusbTL6rlAdZQ9HEA8REqLS9btF9bR4Sj8uegGVJdrF+MtDYxvF5hMn7YpQw6TCRXHs2ilSeLh16l1ouUhN3ASDiB+KU9LpbqcwuvFUMMz31LOM1f4Tdo1Bi7awmBhl/Q+XY3rJ1x4XXpeNhx0Stpa+MD6EHs181cp9FEpKuszbBqeKOdOUBPwErws6p5QL1NmDc8m8TWbr7pPXVOhY54z/yvo14XwYefrlVzVF/HocOfqqqnxwYOvfS3WyoaUYss/ib/YpcMyBPGS7r0aUul16vy9yPt0mFznE+pnUf7csDdMmpHBVtHthUhfJOa5WEVomP40wGmYE6UicH9UbUWYDKqJzI7OZ1NUW6HF5e8Jb6spAJurWzPlvRrtptKi6mKDVeIuGFNvQvTlYbC9+I71wg09EPLm621qTZg5oEEiPA6++fpwiVkXrTbR28rswp7vRBFq2FOCgixhSWU65qTWWBaB3ZEilLw756T20KvW2AkJGSxGuRU/8VUEBmaWafbrIKybC/uEmPcSMl54fCeuIWa7a5kkROwTUubbMbw83ghRce+sqDyKXiLf2tzKHQNm2SFJ9VSp590FIZ7/q7KaptJjsR/teUjGKrsciiQ55vc0zfNrUvYzONFJ238zpZY37SK5uQAAAABJRU5ErkJggg==;imageBorder=default;" parent="1" vertex="1">
          <mxGeometry x="500" y="122.04999999999998" width="88" height="85.3" as="geometry" />
        </mxCell>
        <mxCell id="prM5BcyBm9Gt86h00Z2--20" value="" style="shape=image;verticalLabelPosition=bottom;labelBackgroundColor=default;verticalAlign=top;aspect=fixed;imageAspect=0;image=data:image/png,iVBORw0KGgoAAAANSUhEUgAAAOQAAADdCAMAAACc/C7aAAAAYFBMVEX///8ArdQAq9MAp9EAqdIAptH4/f7k9PnP6/QArtR+zOTx+vzs+Pv0+/3o9vrg8vhxx+GW1ei14e8ztdjW7vbB5vGi2etIu9tewd7R7PWg2Oqy3+6P0udkw999y+M+uNmTwQumAAAK8ElEQVR4nN1da5eiMAxd2qLgY0RB8YH6///lFp1xQHnctCmFuWfPnpkPow1t05vkNvz7NzQOeSDyw+BfOyTmsQo0ZLr0PRKHCETwgEh9j8QdFt82BoHa+h6LK8xl8IJa+x6NI+Ti10hx9T0aN9hXJlI7n5Pv8ThBIKpGBn/S92xVzcZAXnyPiB9LWbdRz+vM95jYcRTBu5UL32Pixul9IssFO/c9KmaknzYG4u57VLw4NEyknsq973FxYvaxIZ9TGfseGCcS1WhkoArfI+PDpnGxPhbs34m58ubVWi7Yo++xcWHXOpF6KiPfo2NC0DqRwZ+hsEWL1/meyj+R8Fl1LNYS6i9Q2E/S+mbkzfcI7RGF3TbqBbvxPUZrNJHWN0yewp57duRjKne+R2mHdc+GfEAI38O0QxtprWPaFLadtL4t2JXvkVrgjtk4aQq7gxZriXCyFHbWSVrrmCyFLXAbA3n2PVozfPVynSrENCtA7aFyE1Tie7wm2IPHxw/CKVLYmDSRwSR9z3t9px9qchQWIq11TI/CXskTOb0KUEY6Pn4gv3yPmwQgVG6ayklR2Avx+HhN5YQqQBTSWp/KCVWAFoY2TknENDfyOt9WToXC0kjrm5ETETFRSWsdMvM9fghk0lrHJCgsnbS+TeUEREwfoiQqpkBh++o7gJWjrwBFthOpEY5dxGRGWusQuW8rutEsSqJi3BS2RZRExbgp7M3y+PjBmCksWt/pRzheERNa3+nHeHX4XaIkKkYrYjINlRsxUgrbLUqiYpwipj5R0g/Q6RZjFDFhpFXIWGBPY4wiJoy0ikDHxHtsXY9QxISR1qfTxMjf+CgsOO7v4y/GnsjIKkBrcAV+E5mmWyINjyTwa9Q7QFHSi5JeIS81LhETRlorwcUKm/lwTCImjLRWw0Qs3TWmChAmSqp7SyxxOSIKi5GYsFZ9BFPQo6GwmCjpvY6MFRPGQmG/QJr29mdgWWgkOnxsStRHYhwr8I1DxGS8uWYggRhDBQhzk2HDUC+YlSPQ4WMHXvOiw0j950IfGktsNlRj9g0TwvivAIEktOUgmAaFzaiktQ6wzuf5GjsYKrfWNs4ToLCYf+waI+ibPVaAZgLbUx2SOeyU9VkBwjiL6PQbIF/yVgEC2Wf3CTAHzyBfIiYwjuhJR2ExjC8KC5LWXlYGRqN+KCyW8O+/JABedvISPtuQ1jqwDJEPCouSVsBhgBTWQxYWq+9g2Qssazu8Dh8UJWEbaY192OAiJoy0otcix1kBAkcFE2swCzsohQVFSQrO8o+RwmKiJEqwi/mxISksWN+h+Hw0eTtcBejuYAdh2pHhdPiYKInqC7HYNByqmSg4HKKuAdRzDURhwYVFVqiARc5BKOwKDJXJhZqNqw82AEhaDR44djANQWFZSWsdYAVogGvsqcMyOHbt0j2FpYmSqLDNVfOAKEqiAhXo8Rr1DqooiQqwAuSUwoL1HfMnDYqYnHZioouSqABFTA4prIkoiQrvIiYTURIVYPjsjMKC9R1LRuJXxITFtcKWW4IU1pGICSyyWcuNfYqYBlP8gVkyJxTWXJREBdg5xIGIia++0w+QwrLr8K1ESVScPFWA7ERJVPhpJgreceDKcIPrhrkTE+X+Dgd8iJjsRUlUeKCw2MnFeYNs+AoQ2CmJVWMM8is2CjvHDmf9XIs9WzQLKqEkl4gJ7pQklFTxbcdzfX5YCkvrlCSUCu8Fx+4EdUI8e8SgU5KQqb2dQ+rwzS6d65Ubby036HA6fPTSeYOdIjxapYGx3ODH1SEDWHVKEio+W0TwQ4mY+t+E0WemWhh7WzBfr2xFTAydkpS6mZo5jIiJp1OSnk3DRQvW0Ky2Plgx7IcwLF9gu8WOwnJ1StJQgdHjBkVMFv3wwRQoBiFzgxgXFDFZvE6Or1PS00yTB45xEfMKEGenpCdkSvf2oGrIlMKydkr6MZMcALoVMfF2SvqByqkRoEsREyhKIkMoYmIGbBRnVAGyb+/ZZmVIzJe6EzFxtPdsg8xJTx0VMdGdGhwqCw2lpP4nQ6nDKyll+Zvq+ntF87KuKOwBeHpP4+Jjsj3soiz7ms30BM1mq3l22h2K612bLdoOANrGdCNi6snTP6xLk+1u08k0vvbnJFWyyVARUrwhKGIiUtiOcFXbJ/JiP0e31TraHvWffD53ivtxocNvuz2lF+B9sTegoNk213NfHylF9gueZ6TKYcMeEKWBRWSRzNgvAllbIJKQM+XvxPQhShIqjBd7+2R1pO2sTKci+EOMY0pYh19/E4Z2Mup4YKsE7q+VZUvYRGCKG/Y9laWhF6m4MUu8ltv4NWDCVDKLmF6uTCjBkvD/wP7+XLWUMJBZh/8stQgZcM9hBVlemkl6IyNYAQJ99kqpQFlmv/uRHUVK+gpmEdPqdl+MsHU+mB8dQScmG4AVIH4R0zza7S7bBy67XTR3KZweXoe/2W2PaRlZlWGVeAZcmhVJmV6LS+ZGqDlkJ6blfpELqVriqGcElt4u/KfPEjtG7PvhR4WOnpBoU8ngumNuvjJIM9FdogkCnPzRcyrTM6ufdi5iOt2CxgC4x1KZ2tbVK3ArYpqd4/eAELczzNncOihiMqkAbW7dmaleM6VgohfOmolmR8TT9H2tPLJQYTedmKJ7Q4bGBELeOfiwgwrQJufMMisaJ28Eu4hpdQ2ZqwUqtjaTmcIerLxNM4TMLakQesER8j2ru5t6iAgTO2rLqMPfMfmbpu+3UTLgl477s2+Jw7KWrQcCdfh9abK55asy+yFzC6UqSycmu1eeYhDyakyCOChsMYCNgZWZ9iImk7e7m0GbaXaeoFrYtnh2hjVOYoI+Nk0oLXpBriV7/YUpE/kgVHohn5voq2ebOxLM6WGxNYRSCdHVgq1EmxPqG3cMoBPE/MEMPuEaFOqZJxuDMiEk72fQC53wU/zzrMwcEHIKlEz7a71REROmQr1rmHzbGDyr9nFyadmh6+h87JEIfeCN282pa/Xlo3ifzSMXn163uyhbz55YZtGhOMbSIFtYZz1f4Ac8KgJlPSAI0vsxz/N7GsTl74qQkkW+Rj2lXeXUPX4y/PSqjTMk4C7LHXGebD8rO6t5dCmusbTL6rlAdZQ9HEA8REqLS9btF9bR4Sj8uegGVJdrF+MtDYxvF5hMn7YpQw6TCRXHs2ilSeLh16l1ouUhN3ASDiB+KU9LpbqcwuvFUMMz31LOM1f4Tdo1Bi7awmBhl/Q+XY3rJ1x4XXpeNhx0Stpa+MD6EHs181cp9FEpKuszbBqeKOdOUBPwErws6p5QL1NmDc8m8TWbr7pPXVOhY54z/yvo14XwYefrlVzVF/HocOfqqqnxwYOvfS3WyoaUYss/ib/YpcMyBPGS7r0aUul16vy9yPt0mFznE+pnUf7csDdMmpHBVtHthUhfJOa5WEVomP40wGmYE6UicH9UbUWYDKqJzI7OZ1NUW6HF5e8Jb6spAJurWzPlvRrtptKi6mKDVeIuGFNvQvTlYbC9+I71wg09EPLm621qTZg5oEEiPA6++fpwiVkXrTbR28rswp7vRBFq2FOCgixhSWU65qTWWBaB3ZEilLw756T20KvW2AkJGSxGuRU/8VUEBmaWafbrIKybC/uEmPcSMl54fCeuIWa7a5kkROwTUubbMbw83ghRce+sqDyKXiLf2tzKHQNm2SFJ9VSp590FIZ7/q7KaptJjsR/teUjGKrsciiQ55vc0zfNrUvYzONFJ238zpZY37SK5uQAAAABJRU5ErkJggg==;imageBorder=default;" parent="1" vertex="1">
          <mxGeometry x="546" y="404.70000000000005" width="88" height="85.3" as="geometry" />
        </mxCell>
        <mxCell id="prM5BcyBm9Gt86h00Z2--21" value="Scan the table for unique queries, to reduce overlapping and then Embedd customer_queries and tag each query with the product&amp;nbsp;" style="rounded=1;whiteSpace=wrap;html=1;" parent="1" vertex="1">
          <mxGeometry x="399" y="259" width="266" height="54" as="geometry" />
        </mxCell>
        <mxCell id="prM5BcyBm9Gt86h00Z2--22" value="Extract Product id and Warranty info" style="rounded=1;whiteSpace=wrap;html=1;" parent="1" vertex="1">
          <mxGeometry x="301" y="140" width="130" height="40" as="geometry" />
        </mxCell>
        <mxCell id="prM5BcyBm9Gt86h00Z2--23" value="Seperate the products based on their language and then Cluster Product based on their similarity&lt;div&gt;and then embedd the product title&lt;/div&gt;&lt;div&gt;&lt;br&gt;&lt;/div&gt;" style="rounded=1;whiteSpace=wrap;html=1;" parent="1" vertex="1">
          <mxGeometry x="308" y="360.7" width="203" height="73.3" as="geometry" />
        </mxCell>
        <mxCell id="prM5BcyBm9Gt86h00Z2--26" value="Warranty Table" style="rounded=0;whiteSpace=wrap;html=1;" parent="1" vertex="1">
          <mxGeometry x="484" y="220" width="120" height="25" as="geometry" />
        </mxCell>
        <mxCell id="prM5BcyBm9Gt86h00Z2--27" value="Product Table" style="rounded=0;whiteSpace=wrap;html=1;" parent="1" vertex="1">
          <mxGeometry x="524" y="510" width="120" height="25" as="geometry" />
        </mxCell>
        <mxCell id="prM5BcyBm9Gt86h00Z2--28" value="Customer Queries Table" style="rounded=0;whiteSpace=wrap;html=1;" parent="1" vertex="1">
          <mxGeometry x="145" y="356.3" width="120" height="25" as="geometry" />
        </mxCell>
        <mxCell id="prM5BcyBm9Gt86h00Z2--186" value="" style="endArrow=classic;html=1;rounded=0;" parent="1" edge="1">
          <mxGeometry width="50" height="50" relative="1" as="geometry">
            <mxPoint x="589.5" y="400" as="sourcePoint" />
            <mxPoint x="589.5" y="329" as="targetPoint" />
          </mxGeometry>
        </mxCell>
        <mxCell id="prM5BcyBm9Gt86h00Z2--187" value="" style="shape=image;verticalLabelPosition=bottom;labelBackgroundColor=default;verticalAlign=top;aspect=fixed;imageAspect=0;image=data:image/png,iVBORw0KGgoAAAANSUhEUgAAAOQAAADdCAMAAACc/C7aAAAAYFBMVEX///8ArdQAq9MAp9EAqdIAptH4/f7k9PnP6/QArtR+zOTx+vzs+Pv0+/3o9vrg8vhxx+GW1ei14e8ztdjW7vbB5vGi2etIu9tewd7R7PWg2Oqy3+6P0udkw999y+M+uNmTwQumAAAK8ElEQVR4nN1da5eiMAxd2qLgY0RB8YH6///lFp1xQHnctCmFuWfPnpkPow1t05vkNvz7NzQOeSDyw+BfOyTmsQo0ZLr0PRKHCETwgEh9j8QdFt82BoHa+h6LK8xl8IJa+x6NI+Ti10hx9T0aN9hXJlI7n5Pv8ThBIKpGBn/S92xVzcZAXnyPiB9LWbdRz+vM95jYcRTBu5UL32Pixul9IssFO/c9KmaknzYG4u57VLw4NEyknsq973FxYvaxIZ9TGfseGCcS1WhkoArfI+PDpnGxPhbs34m58ubVWi7Yo++xcWHXOpF6KiPfo2NC0DqRwZ+hsEWL1/meyj+R8Fl1LNYS6i9Q2E/S+mbkzfcI7RGF3TbqBbvxPUZrNJHWN0yewp57duRjKne+R2mHdc+GfEAI38O0QxtprWPaFLadtL4t2JXvkVrgjtk4aQq7gxZriXCyFHbWSVrrmCyFLXAbA3n2PVozfPVynSrENCtA7aFyE1Tie7wm2IPHxw/CKVLYmDSRwSR9z3t9px9qchQWIq11TI/CXskTOb0KUEY6Pn4gv3yPmwQgVG6ayklR2Avx+HhN5YQqQBTSWp/KCVWAFoY2TknENDfyOt9WToXC0kjrm5ETETFRSWsdMvM9fghk0lrHJCgsnbS+TeUEREwfoiQqpkBh++o7gJWjrwBFthOpEY5dxGRGWusQuW8rutEsSqJi3BS2RZRExbgp7M3y+PjBmCksWt/pRzheERNa3+nHeHX4XaIkKkYrYjINlRsxUgrbLUqiYpwipj5R0g/Q6RZjFDFhpFXIWGBPY4wiJoy0ikDHxHtsXY9QxISR1qfTxMjf+CgsOO7v4y/GnsjIKkBrcAV+E5mmWyINjyTwa9Q7QFHSi5JeIS81LhETRlorwcUKm/lwTCImjLRWw0Qs3TWmChAmSqp7SyxxOSIKi5GYsFZ9BFPQo6GwmCjpvY6MFRPGQmG/QJr29mdgWWgkOnxsStRHYhwr8I1DxGS8uWYggRhDBQhzk2HDUC+YlSPQ4WMHXvOiw0j950IfGktsNlRj9g0TwvivAIEktOUgmAaFzaiktQ6wzuf5GjsYKrfWNs4ToLCYf+waI+ibPVaAZgLbUx2SOeyU9VkBwjiL6PQbIF/yVgEC2Wf3CTAHzyBfIiYwjuhJR2ExjC8KC5LWXlYGRqN+KCyW8O+/JABedvISPtuQ1jqwDJEPCouSVsBhgBTWQxYWq+9g2Qssazu8Dh8UJWEbaY192OAiJoy0otcix1kBAkcFE2swCzsohQVFSQrO8o+RwmKiJEqwi/mxISksWN+h+Hw0eTtcBejuYAdh2pHhdPiYKInqC7HYNByqmSg4HKKuAdRzDURhwYVFVqiARc5BKOwKDJXJhZqNqw82AEhaDR44djANQWFZSWsdYAVogGvsqcMyOHbt0j2FpYmSqLDNVfOAKEqiAhXo8Rr1DqooiQqwAuSUwoL1HfMnDYqYnHZioouSqABFTA4prIkoiQrvIiYTURIVYPjsjMKC9R1LRuJXxITFtcKWW4IU1pGICSyyWcuNfYqYBlP8gVkyJxTWXJREBdg5xIGIia++0w+QwrLr8K1ESVScPFWA7ERJVPhpJgreceDKcIPrhrkTE+X+Dgd8iJjsRUlUeKCw2MnFeYNs+AoQ2CmJVWMM8is2CjvHDmf9XIs9WzQLKqEkl4gJ7pQklFTxbcdzfX5YCkvrlCSUCu8Fx+4EdUI8e8SgU5KQqb2dQ+rwzS6d65Ubby036HA6fPTSeYOdIjxapYGx3ODH1SEDWHVKEio+W0TwQ4mY+t+E0WemWhh7WzBfr2xFTAydkpS6mZo5jIiJp1OSnk3DRQvW0Ky2Plgx7IcwLF9gu8WOwnJ1StJQgdHjBkVMFv3wwRQoBiFzgxgXFDFZvE6Or1PS00yTB45xEfMKEGenpCdkSvf2oGrIlMKydkr6MZMcALoVMfF2SvqByqkRoEsREyhKIkMoYmIGbBRnVAGyb+/ZZmVIzJe6EzFxtPdsg8xJTx0VMdGdGhwqCw2lpP4nQ6nDKyll+Zvq+ntF87KuKOwBeHpP4+Jjsj3soiz7ms30BM1mq3l22h2K612bLdoOANrGdCNi6snTP6xLk+1u08k0vvbnJFWyyVARUrwhKGIiUtiOcFXbJ/JiP0e31TraHvWffD53ivtxocNvuz2lF+B9sTegoNk213NfHylF9gueZ6TKYcMeEKWBRWSRzNgvAllbIJKQM+XvxPQhShIqjBd7+2R1pO2sTKci+EOMY0pYh19/E4Z2Mup4YKsE7q+VZUvYRGCKG/Y9laWhF6m4MUu8ltv4NWDCVDKLmF6uTCjBkvD/wP7+XLWUMJBZh/8stQgZcM9hBVlemkl6IyNYAQJ99kqpQFlmv/uRHUVK+gpmEdPqdl+MsHU+mB8dQScmG4AVIH4R0zza7S7bBy67XTR3KZweXoe/2W2PaRlZlWGVeAZcmhVJmV6LS+ZGqDlkJ6blfpELqVriqGcElt4u/KfPEjtG7PvhR4WOnpBoU8ngumNuvjJIM9FdogkCnPzRcyrTM6ufdi5iOt2CxgC4x1KZ2tbVK3ArYpqd4/eAELczzNncOihiMqkAbW7dmaleM6VgohfOmolmR8TT9H2tPLJQYTedmKJ7Q4bGBELeOfiwgwrQJufMMisaJ28Eu4hpdQ2ZqwUqtjaTmcIerLxNM4TMLakQesER8j2ru5t6iAgTO2rLqMPfMfmbpu+3UTLgl477s2+Jw7KWrQcCdfh9abK55asy+yFzC6UqSycmu1eeYhDyakyCOChsMYCNgZWZ9iImk7e7m0GbaXaeoFrYtnh2hjVOYoI+Nk0oLXpBriV7/YUpE/kgVHohn5voq2ebOxLM6WGxNYRSCdHVgq1EmxPqG3cMoBPE/MEMPuEaFOqZJxuDMiEk72fQC53wU/zzrMwcEHIKlEz7a71REROmQr1rmHzbGDyr9nFyadmh6+h87JEIfeCN282pa/Xlo3ifzSMXn163uyhbz55YZtGhOMbSIFtYZz1f4Ac8KgJlPSAI0vsxz/N7GsTl74qQkkW+Rj2lXeXUPX4y/PSqjTMk4C7LHXGebD8rO6t5dCmusbTL6rlAdZQ9HEA8REqLS9btF9bR4Sj8uegGVJdrF+MtDYxvF5hMn7YpQw6TCRXHs2ilSeLh16l1ouUhN3ASDiB+KU9LpbqcwuvFUMMz31LOM1f4Tdo1Bi7awmBhl/Q+XY3rJ1x4XXpeNhx0Stpa+MD6EHs181cp9FEpKuszbBqeKOdOUBPwErws6p5QL1NmDc8m8TWbr7pPXVOhY54z/yvo14XwYefrlVzVF/HocOfqqqnxwYOvfS3WyoaUYss/ib/YpcMyBPGS7r0aUul16vy9yPt0mFznE+pnUf7csDdMmpHBVtHthUhfJOa5WEVomP40wGmYE6UicH9UbUWYDKqJzI7OZ1NUW6HF5e8Jb6spAJurWzPlvRrtptKi6mKDVeIuGFNvQvTlYbC9+I71wg09EPLm621qTZg5oEEiPA6++fpwiVkXrTbR28rswp7vRBFq2FOCgixhSWU65qTWWBaB3ZEilLw756T20KvW2AkJGSxGuRU/8VUEBmaWafbrIKybC/uEmPcSMl54fCeuIWa7a5kkROwTUubbMbw83ghRce+sqDyKXiLf2tzKHQNm2SFJ9VSp590FIZ7/q7KaptJjsR/teUjGKrsciiQ55vc0zfNrUvYzONFJ238zpZY37SK5uQAAAABJRU5ErkJggg==;imageBorder=default;" parent="1" vertex="1">
          <mxGeometry x="721" y="271" width="88" height="85.3" as="geometry" />
        </mxCell>
        <mxCell id="prM5BcyBm9Gt86h00Z2--188" value="" style="shape=actor;whiteSpace=wrap;html=1;" parent="1" vertex="1">
          <mxGeometry x="1498" y="277" width="40" height="60" as="geometry" />
        </mxCell>
        <mxCell id="prM5BcyBm9Gt86h00Z2--190" value="User" style="rounded=1;whiteSpace=wrap;html=1;" parent="1" vertex="1">
          <mxGeometry x="1458" y="365.7" width="120" height="26.3" as="geometry" />
        </mxCell>
        <mxCell id="prM5BcyBm9Gt86h00Z2--191" value="" style="image;aspect=fixed;html=1;points=[];align=center;fontSize=12;image=img/lib/azure2/analytics/Azure_Databricks.svg;" parent="1" vertex="1">
          <mxGeometry x="966" y="273" width="62.8" height="68" as="geometry" />
        </mxCell>
        <mxCell id="prM5BcyBm9Gt86h00Z2--192" value="Mosaic AI Endpoint for Customer Queries" style="rounded=1;whiteSpace=wrap;html=1;" parent="1" vertex="1">
          <mxGeometry x="945" y="356.3" width="120" height="35.7" as="geometry" />
        </mxCell>
        <mxCell id="prM5BcyBm9Gt86h00Z2--193" value="" style="endArrow=classic;html=1;rounded=0;" parent="1" edge="1">
          <mxGeometry width="50" height="50" relative="1" as="geometry">
            <mxPoint x="833" y="313" as="sourcePoint" />
            <mxPoint x="938" y="313" as="targetPoint" />
          </mxGeometry>
        </mxCell>
        <mxCell id="prM5BcyBm9Gt86h00Z2--194" value="Indexing and deploying" style="rounded=1;whiteSpace=wrap;html=1;" parent="1" vertex="1">
          <mxGeometry x="730" y="520" width="120" height="32" as="geometry" />
        </mxCell>
        <mxCell id="prM5BcyBm9Gt86h00Z2--197" value="" style="image;aspect=fixed;html=1;points=[];align=center;fontSize=12;image=img/lib/azure2/analytics/Azure_Databricks.svg;" parent="1" vertex="1">
          <mxGeometry x="966" y="462" width="62.8" height="68" as="geometry" />
        </mxCell>
        <mxCell id="prM5BcyBm9Gt86h00Z2--198" value="Mosaic AI Endpoint for Product Information" style="rounded=1;whiteSpace=wrap;html=1;" parent="1" vertex="1">
          <mxGeometry x="931" y="550" width="154.5" height="35.7" as="geometry" />
        </mxCell>
        <mxCell id="prM5BcyBm9Gt86h00Z2--201" value="" style="endArrow=classic;html=1;rounded=0;" parent="1" edge="1">
          <mxGeometry width="50" height="50" relative="1" as="geometry">
            <mxPoint x="1470" y="318" as="sourcePoint" />
            <mxPoint x="1379" y="318" as="targetPoint" />
          </mxGeometry>
        </mxCell>
        <mxCell id="prM5BcyBm9Gt86h00Z2--202" value="Query" style="whiteSpace=wrap;html=1;" parent="1" vertex="1">
          <mxGeometry x="1386" y="268" width="85" height="32" as="geometry" />
        </mxCell>
        <mxCell id="prM5BcyBm9Gt86h00Z2--204" value="Intent Recognition Framework" style="whiteSpace=wrap;html=1;aspect=fixed;" parent="1" vertex="1">
          <mxGeometry x="1281" y="277" width="80" height="80" as="geometry" />
        </mxCell>
        <mxCell id="prM5BcyBm9Gt86h00Z2--205" value="" style="endArrow=none;html=1;rounded=0;" parent="1" edge="1">
          <mxGeometry width="50" height="50" relative="1" as="geometry">
            <mxPoint x="1246" y="722" as="sourcePoint" />
            <mxPoint x="1246" y="175" as="targetPoint" />
          </mxGeometry>
        </mxCell>
        <mxCell id="prM5BcyBm9Gt86h00Z2--206" value="" style="endArrow=none;html=1;rounded=0;" parent="1" edge="1">
          <mxGeometry width="50" height="50" relative="1" as="geometry">
            <mxPoint x="1246" y="310" as="sourcePoint" />
            <mxPoint x="1281" y="310" as="targetPoint" />
          </mxGeometry>
        </mxCell>
        <mxCell id="prM5BcyBm9Gt86h00Z2--207" value="Indexing and deploying" style="rounded=1;whiteSpace=wrap;html=1;" parent="1" vertex="1">
          <mxGeometry x="832" y="268" width="120" height="32" as="geometry" />
        </mxCell>
        <mxCell id="prM5BcyBm9Gt86h00Z2--208" value="" style="endArrow=classic;html=1;rounded=0;" parent="1" edge="1">
          <mxGeometry width="50" height="50" relative="1" as="geometry">
            <mxPoint x="609" y="574" as="sourcePoint" />
            <mxPoint x="896" y="574" as="targetPoint" />
          </mxGeometry>
        </mxCell>
        <mxCell id="prM5BcyBm9Gt86h00Z2--210" value="" style="endArrow=classic;html=1;rounded=0;" parent="1" edge="1">
          <mxGeometry width="50" height="50" relative="1" as="geometry">
            <mxPoint x="1246" y="308.5" as="sourcePoint" />
            <mxPoint x="1050" y="308" as="targetPoint" />
          </mxGeometry>
        </mxCell>
        <mxCell id="prM5BcyBm9Gt86h00Z2--211" value="Customer Queries to Find a Product" style="rounded=1;whiteSpace=wrap;html=1;" parent="1" vertex="1">
          <mxGeometry x="1099" y="240" width="120" height="60" as="geometry" />
        </mxCell>
        <mxCell id="prM5BcyBm9Gt86h00Z2--212" value="" style="endArrow=classic;html=1;rounded=0;" parent="1" edge="1">
          <mxGeometry width="50" height="50" relative="1" as="geometry">
            <mxPoint x="1246" y="483.5" as="sourcePoint" />
            <mxPoint x="1050" y="483" as="targetPoint" />
          </mxGeometry>
        </mxCell>
        <mxCell id="prM5BcyBm9Gt86h00Z2--213" value="Customer Queries to find more info about a product/ compare a product with it&#39;s competitior" style="rounded=1;whiteSpace=wrap;html=1;" parent="1" vertex="1">
          <mxGeometry x="1085.5" y="399" width="139.5" height="74" as="geometry" />
        </mxCell>
        <mxCell id="prM5BcyBm9Gt86h00Z2--214" value="" style="endArrow=classic;html=1;rounded=0;" parent="1" edge="1">
          <mxGeometry width="50" height="50" relative="1" as="geometry">
            <mxPoint x="1246" y="175.5" as="sourcePoint" />
            <mxPoint x="596" y="175" as="targetPoint" />
          </mxGeometry>
        </mxCell>
        <mxCell id="prM5BcyBm9Gt86h00Z2--215" value="Customer Queries to find a warranty about a product(we have to consider the product either in the said conversation or the previous one)" style="rounded=1;whiteSpace=wrap;html=1;" parent="1" vertex="1">
          <mxGeometry x="896" y="70" width="259" height="88" as="geometry" />
        </mxCell>
        <mxCell id="prM5BcyBm9Gt86h00Z2--216" value="" style="endArrow=classic;html=1;rounded=0;" parent="1" edge="1">
          <mxGeometry width="50" height="50" relative="1" as="geometry">
            <mxPoint x="1246" y="721.5" as="sourcePoint" />
            <mxPoint x="1050" y="721" as="targetPoint" />
          </mxGeometry>
        </mxCell>
        <mxCell id="prM5BcyBm9Gt86h00Z2--217" value="Generic Questions which are not related to product" style="rounded=1;whiteSpace=wrap;html=1;" parent="1" vertex="1">
          <mxGeometry x="1095.25" y="644" width="120" height="60" as="geometry" />
        </mxCell>
        <mxCell id="prM5BcyBm9Gt86h00Z2--218" value="Standard Response:&quot;Query is nor related to product&quot;" style="rounded=1;whiteSpace=wrap;html=1;" parent="1" vertex="1">
          <mxGeometry x="910" y="693" width="120" height="60" as="geometry" />
        </mxCell>
        <mxCell id="QPjCsglatL6UOP2Djky4-3" value="C" style="group" parent="1" vertex="1" connectable="0">
          <mxGeometry x="-161" y="119" width="180" height="440" as="geometry" />
        </mxCell>
        <mxCell id="prM5BcyBm9Gt86h00Z2--2" value="" style="rounded=0;whiteSpace=wrap;html=1;fillColor=default;" parent="QPjCsglatL6UOP2Djky4-3" vertex="1">
          <mxGeometry x="15" width="150" height="380" as="geometry" />
        </mxCell>
        <mxCell id="prM5BcyBm9Gt86h00Z2--3" value="" style="verticalLabelPosition=bottom;html=1;verticalAlign=top;align=center;strokeColor=none;fillColor=#00BEF2;shape=mxgraph.azure.storage_blob;" parent="QPjCsglatL6UOP2Djky4-3" vertex="1">
          <mxGeometry x="60" y="20" width="60" height="60" as="geometry" />
        </mxCell>
        <mxCell id="prM5BcyBm9Gt86h00Z2--4" value="Warranty Documents" style="rounded=1;whiteSpace=wrap;html=1;" parent="QPjCsglatL6UOP2Djky4-3" vertex="1">
          <mxGeometry x="30" y="95" width="120" height="25" as="geometry" />
        </mxCell>
        <mxCell id="prM5BcyBm9Gt86h00Z2--6" value="Customer Queries" style="rounded=1;whiteSpace=wrap;html=1;" parent="QPjCsglatL6UOP2Djky4-3" vertex="1">
          <mxGeometry x="30" y="210" width="120" height="30" as="geometry" />
        </mxCell>
        <mxCell id="prM5BcyBm9Gt86h00Z2--9" value="Product Information" style="rounded=1;whiteSpace=wrap;html=1;" parent="QPjCsglatL6UOP2Djky4-3" vertex="1">
          <mxGeometry x="30" y="338" width="120" height="25" as="geometry" />
        </mxCell>
        <mxCell id="prM5BcyBm9Gt86h00Z2--12" value="Data Sources" style="rounded=1;whiteSpace=wrap;html=1;" parent="QPjCsglatL6UOP2Djky4-3" vertex="1">
          <mxGeometry y="410" width="180" height="30" as="geometry" />
        </mxCell>
        <mxCell id="QPjCsglatL6UOP2Djky4-1" value="" style="verticalLabelPosition=bottom;html=1;verticalAlign=top;align=center;strokeColor=none;fillColor=#00BEF2;shape=mxgraph.azure.storage_blob;" parent="QPjCsglatL6UOP2Djky4-3" vertex="1">
          <mxGeometry x="60" y="264" width="60" height="60" as="geometry" />
        </mxCell>
        <mxCell id="QPjCsglatL6UOP2Djky4-2" value="" style="verticalLabelPosition=bottom;html=1;verticalAlign=top;align=center;strokeColor=none;fillColor=#00BEF2;shape=mxgraph.azure.storage_blob;" parent="QPjCsglatL6UOP2Djky4-3" vertex="1">
          <mxGeometry x="60" y="143" width="60" height="60" as="geometry" />
        </mxCell>
        <mxCell id="QPjCsglatL6UOP2Djky4-4" value="" style="shape=image;verticalLabelPosition=bottom;labelBackgroundColor=default;verticalAlign=top;aspect=fixed;imageAspect=0;image=data:image/png,iVBORw0KGgoAAAANSUhEUgAAAOQAAADdCAMAAACc/C7aAAAAYFBMVEX///8ArdQAq9MAp9EAqdIAptH4/f7k9PnP6/QArtR+zOTx+vzs+Pv0+/3o9vrg8vhxx+GW1ei14e8ztdjW7vbB5vGi2etIu9tewd7R7PWg2Oqy3+6P0udkw999y+M+uNmTwQumAAAK8ElEQVR4nN1da5eiMAxd2qLgY0RB8YH6///lFp1xQHnctCmFuWfPnpkPow1t05vkNvz7NzQOeSDyw+BfOyTmsQo0ZLr0PRKHCETwgEh9j8QdFt82BoHa+h6LK8xl8IJa+x6NI+Ti10hx9T0aN9hXJlI7n5Pv8ThBIKpGBn/S92xVzcZAXnyPiB9LWbdRz+vM95jYcRTBu5UL32Pixul9IssFO/c9KmaknzYG4u57VLw4NEyknsq973FxYvaxIZ9TGfseGCcS1WhkoArfI+PDpnGxPhbs34m58ubVWi7Yo++xcWHXOpF6KiPfo2NC0DqRwZ+hsEWL1/meyj+R8Fl1LNYS6i9Q2E/S+mbkzfcI7RGF3TbqBbvxPUZrNJHWN0yewp57duRjKne+R2mHdc+GfEAI38O0QxtprWPaFLadtL4t2JXvkVrgjtk4aQq7gxZriXCyFHbWSVrrmCyFLXAbA3n2PVozfPVynSrENCtA7aFyE1Tie7wm2IPHxw/CKVLYmDSRwSR9z3t9px9qchQWIq11TI/CXskTOb0KUEY6Pn4gv3yPmwQgVG6ayklR2Avx+HhN5YQqQBTSWp/KCVWAFoY2TknENDfyOt9WToXC0kjrm5ETETFRSWsdMvM9fghk0lrHJCgsnbS+TeUEREwfoiQqpkBh++o7gJWjrwBFthOpEY5dxGRGWusQuW8rutEsSqJi3BS2RZRExbgp7M3y+PjBmCksWt/pRzheERNa3+nHeHX4XaIkKkYrYjINlRsxUgrbLUqiYpwipj5R0g/Q6RZjFDFhpFXIWGBPY4wiJoy0ikDHxHtsXY9QxISR1qfTxMjf+CgsOO7v4y/GnsjIKkBrcAV+E5mmWyINjyTwa9Q7QFHSi5JeIS81LhETRlorwcUKm/lwTCImjLRWw0Qs3TWmChAmSqp7SyxxOSIKi5GYsFZ9BFPQo6GwmCjpvY6MFRPGQmG/QJr29mdgWWgkOnxsStRHYhwr8I1DxGS8uWYggRhDBQhzk2HDUC+YlSPQ4WMHXvOiw0j950IfGktsNlRj9g0TwvivAIEktOUgmAaFzaiktQ6wzuf5GjsYKrfWNs4ToLCYf+waI+ibPVaAZgLbUx2SOeyU9VkBwjiL6PQbIF/yVgEC2Wf3CTAHzyBfIiYwjuhJR2ExjC8KC5LWXlYGRqN+KCyW8O+/JABedvISPtuQ1jqwDJEPCouSVsBhgBTWQxYWq+9g2Qssazu8Dh8UJWEbaY192OAiJoy0otcix1kBAkcFE2swCzsohQVFSQrO8o+RwmKiJEqwi/mxISksWN+h+Hw0eTtcBejuYAdh2pHhdPiYKInqC7HYNByqmSg4HKKuAdRzDURhwYVFVqiARc5BKOwKDJXJhZqNqw82AEhaDR44djANQWFZSWsdYAVogGvsqcMyOHbt0j2FpYmSqLDNVfOAKEqiAhXo8Rr1DqooiQqwAuSUwoL1HfMnDYqYnHZioouSqABFTA4prIkoiQrvIiYTURIVYPjsjMKC9R1LRuJXxITFtcKWW4IU1pGICSyyWcuNfYqYBlP8gVkyJxTWXJREBdg5xIGIia++0w+QwrLr8K1ESVScPFWA7ERJVPhpJgreceDKcIPrhrkTE+X+Dgd8iJjsRUlUeKCw2MnFeYNs+AoQ2CmJVWMM8is2CjvHDmf9XIs9WzQLKqEkl4gJ7pQklFTxbcdzfX5YCkvrlCSUCu8Fx+4EdUI8e8SgU5KQqb2dQ+rwzS6d65Ubby036HA6fPTSeYOdIjxapYGx3ODH1SEDWHVKEio+W0TwQ4mY+t+E0WemWhh7WzBfr2xFTAydkpS6mZo5jIiJp1OSnk3DRQvW0Ky2Plgx7IcwLF9gu8WOwnJ1StJQgdHjBkVMFv3wwRQoBiFzgxgXFDFZvE6Or1PS00yTB45xEfMKEGenpCdkSvf2oGrIlMKydkr6MZMcALoVMfF2SvqByqkRoEsREyhKIkMoYmIGbBRnVAGyb+/ZZmVIzJe6EzFxtPdsg8xJTx0VMdGdGhwqCw2lpP4nQ6nDKyll+Zvq+ntF87KuKOwBeHpP4+Jjsj3soiz7ms30BM1mq3l22h2K612bLdoOANrGdCNi6snTP6xLk+1u08k0vvbnJFWyyVARUrwhKGIiUtiOcFXbJ/JiP0e31TraHvWffD53ivtxocNvuz2lF+B9sTegoNk213NfHylF9gueZ6TKYcMeEKWBRWSRzNgvAllbIJKQM+XvxPQhShIqjBd7+2R1pO2sTKci+EOMY0pYh19/E4Z2Mup4YKsE7q+VZUvYRGCKG/Y9laWhF6m4MUu8ltv4NWDCVDKLmF6uTCjBkvD/wP7+XLWUMJBZh/8stQgZcM9hBVlemkl6IyNYAQJ99kqpQFlmv/uRHUVK+gpmEdPqdl+MsHU+mB8dQScmG4AVIH4R0zza7S7bBy67XTR3KZweXoe/2W2PaRlZlWGVeAZcmhVJmV6LS+ZGqDlkJ6blfpELqVriqGcElt4u/KfPEjtG7PvhR4WOnpBoU8ngumNuvjJIM9FdogkCnPzRcyrTM6ufdi5iOt2CxgC4x1KZ2tbVK3ArYpqd4/eAELczzNncOihiMqkAbW7dmaleM6VgohfOmolmR8TT9H2tPLJQYTedmKJ7Q4bGBELeOfiwgwrQJufMMisaJ28Eu4hpdQ2ZqwUqtjaTmcIerLxNM4TMLakQesER8j2ru5t6iAgTO2rLqMPfMfmbpu+3UTLgl477s2+Jw7KWrQcCdfh9abK55asy+yFzC6UqSycmu1eeYhDyakyCOChsMYCNgZWZ9iImk7e7m0GbaXaeoFrYtnh2hjVOYoI+Nk0oLXpBriV7/YUpE/kgVHohn5voq2ebOxLM6WGxNYRSCdHVgq1EmxPqG3cMoBPE/MEMPuEaFOqZJxuDMiEk72fQC53wU/zzrMwcEHIKlEz7a71REROmQr1rmHzbGDyr9nFyadmh6+h87JEIfeCN282pa/Xlo3ifzSMXn163uyhbz55YZtGhOMbSIFtYZz1f4Ac8KgJlPSAI0vsxz/N7GsTl74qQkkW+Rj2lXeXUPX4y/PSqjTMk4C7LHXGebD8rO6t5dCmusbTL6rlAdZQ9HEA8REqLS9btF9bR4Sj8uegGVJdrF+MtDYxvF5hMn7YpQw6TCRXHs2ilSeLh16l1ouUhN3ASDiB+KU9LpbqcwuvFUMMz31LOM1f4Tdo1Bi7awmBhl/Q+XY3rJ1x4XXpeNhx0Stpa+MD6EHs181cp9FEpKuszbBqeKOdOUBPwErws6p5QL1NmDc8m8TWbr7pPXVOhY54z/yvo14XwYefrlVzVF/HocOfqqqnxwYOvfS3WyoaUYss/ib/YpcMyBPGS7r0aUul16vy9yPt0mFznE+pnUf7csDdMmpHBVtHthUhfJOa5WEVomP40wGmYE6UicH9UbUWYDKqJzI7OZ1NUW6HF5e8Jb6spAJurWzPlvRrtptKi6mKDVeIuGFNvQvTlYbC9+I71wg09EPLm621qTZg5oEEiPA6++fpwiVkXrTbR28rswp7vRBFq2FOCgixhSWU65qTWWBaB3ZEilLw756T20KvW2AkJGSxGuRU/8VUEBmaWafbrIKybC/uEmPcSMl54fCeuIWa7a5kkROwTUubbMbw83ghRce+sqDyKXiLf2tzKHQNm2SFJ9VSp590FIZ7/q7KaptJjsR/teUjGKrsciiQ55vc0zfNrUvYzONFJ238zpZY37SK5uQAAAABJRU5ErkJggg==;imageBorder=default;" parent="1" vertex="1">
          <mxGeometry x="161" y="255.70000000000002" width="88" height="85.3" as="geometry" />
        </mxCell>
        <mxCell id="QPjCsglatL6UOP2Djky4-5" value="Customer Queries Table" style="rounded=0;whiteSpace=wrap;html=1;" parent="1" vertex="1">
          <mxGeometry x="705" y="386.7" width="120" height="25" as="geometry" />
        </mxCell>
        <mxCell id="QPjCsglatL6UOP2Djky4-6" value="" style="shape=image;verticalLabelPosition=bottom;labelBackgroundColor=default;verticalAlign=top;aspect=fixed;imageAspect=0;image=data:image/png,iVBORw0KGgoAAAANSUhEUgAAAOQAAADdCAMAAACc/C7aAAAAYFBMVEX///8ArdQAq9MAp9EAqdIAptH4/f7k9PnP6/QArtR+zOTx+vzs+Pv0+/3o9vrg8vhxx+GW1ei14e8ztdjW7vbB5vGi2etIu9tewd7R7PWg2Oqy3+6P0udkw999y+M+uNmTwQumAAAK8ElEQVR4nN1da5eiMAxd2qLgY0RB8YH6///lFp1xQHnctCmFuWfPnpkPow1t05vkNvz7NzQOeSDyw+BfOyTmsQo0ZLr0PRKHCETwgEh9j8QdFt82BoHa+h6LK8xl8IJa+x6NI+Ti10hx9T0aN9hXJlI7n5Pv8ThBIKpGBn/S92xVzcZAXnyPiB9LWbdRz+vM95jYcRTBu5UL32Pixul9IssFO/c9KmaknzYG4u57VLw4NEyknsq973FxYvaxIZ9TGfseGCcS1WhkoArfI+PDpnGxPhbs34m58ubVWi7Yo++xcWHXOpF6KiPfo2NC0DqRwZ+hsEWL1/meyj+R8Fl1LNYS6i9Q2E/S+mbkzfcI7RGF3TbqBbvxPUZrNJHWN0yewp57duRjKne+R2mHdc+GfEAI38O0QxtprWPaFLadtL4t2JXvkVrgjtk4aQq7gxZriXCyFHbWSVrrmCyFLXAbA3n2PVozfPVynSrENCtA7aFyE1Tie7wm2IPHxw/CKVLYmDSRwSR9z3t9px9qchQWIq11TI/CXskTOb0KUEY6Pn4gv3yPmwQgVG6ayklR2Avx+HhN5YQqQBTSWp/KCVWAFoY2TknENDfyOt9WToXC0kjrm5ETETFRSWsdMvM9fghk0lrHJCgsnbS+TeUEREwfoiQqpkBh++o7gJWjrwBFthOpEY5dxGRGWusQuW8rutEsSqJi3BS2RZRExbgp7M3y+PjBmCksWt/pRzheERNa3+nHeHX4XaIkKkYrYjINlRsxUgrbLUqiYpwipj5R0g/Q6RZjFDFhpFXIWGBPY4wiJoy0ikDHxHtsXY9QxISR1qfTxMjf+CgsOO7v4y/GnsjIKkBrcAV+E5mmWyINjyTwa9Q7QFHSi5JeIS81LhETRlorwcUKm/lwTCImjLRWw0Qs3TWmChAmSqp7SyxxOSIKi5GYsFZ9BFPQo6GwmCjpvY6MFRPGQmG/QJr29mdgWWgkOnxsStRHYhwr8I1DxGS8uWYggRhDBQhzk2HDUC+YlSPQ4WMHXvOiw0j950IfGktsNlRj9g0TwvivAIEktOUgmAaFzaiktQ6wzuf5GjsYKrfWNs4ToLCYf+waI+ibPVaAZgLbUx2SOeyU9VkBwjiL6PQbIF/yVgEC2Wf3CTAHzyBfIiYwjuhJR2ExjC8KC5LWXlYGRqN+KCyW8O+/JABedvISPtuQ1jqwDJEPCouSVsBhgBTWQxYWq+9g2Qssazu8Dh8UJWEbaY192OAiJoy0otcix1kBAkcFE2swCzsohQVFSQrO8o+RwmKiJEqwi/mxISksWN+h+Hw0eTtcBejuYAdh2pHhdPiYKInqC7HYNByqmSg4HKKuAdRzDURhwYVFVqiARc5BKOwKDJXJhZqNqw82AEhaDR44djANQWFZSWsdYAVogGvsqcMyOHbt0j2FpYmSqLDNVfOAKEqiAhXo8Rr1DqooiQqwAuSUwoL1HfMnDYqYnHZioouSqABFTA4prIkoiQrvIiYTURIVYPjsjMKC9R1LRuJXxITFtcKWW4IU1pGICSyyWcuNfYqYBlP8gVkyJxTWXJREBdg5xIGIia++0w+QwrLr8K1ESVScPFWA7ERJVPhpJgreceDKcIPrhrkTE+X+Dgd8iJjsRUlUeKCw2MnFeYNs+AoQ2CmJVWMM8is2CjvHDmf9XIs9WzQLKqEkl4gJ7pQklFTxbcdzfX5YCkvrlCSUCu8Fx+4EdUI8e8SgU5KQqb2dQ+rwzS6d65Ubby036HA6fPTSeYOdIjxapYGx3ODH1SEDWHVKEio+W0TwQ4mY+t+E0WemWhh7WzBfr2xFTAydkpS6mZo5jIiJp1OSnk3DRQvW0Ky2Plgx7IcwLF9gu8WOwnJ1StJQgdHjBkVMFv3wwRQoBiFzgxgXFDFZvE6Or1PS00yTB45xEfMKEGenpCdkSvf2oGrIlMKydkr6MZMcALoVMfF2SvqByqkRoEsREyhKIkMoYmIGbBRnVAGyb+/ZZmVIzJe6EzFxtPdsg8xJTx0VMdGdGhwqCw2lpP4nQ6nDKyll+Zvq+ntF87KuKOwBeHpP4+Jjsj3soiz7ms30BM1mq3l22h2K612bLdoOANrGdCNi6snTP6xLk+1u08k0vvbnJFWyyVARUrwhKGIiUtiOcFXbJ/JiP0e31TraHvWffD53ivtxocNvuz2lF+B9sTegoNk213NfHylF9gueZ6TKYcMeEKWBRWSRzNgvAllbIJKQM+XvxPQhShIqjBd7+2R1pO2sTKci+EOMY0pYh19/E4Z2Mup4YKsE7q+VZUvYRGCKG/Y9laWhF6m4MUu8ltv4NWDCVDKLmF6uTCjBkvD/wP7+XLWUMJBZh/8stQgZcM9hBVlemkl6IyNYAQJ99kqpQFlmv/uRHUVK+gpmEdPqdl+MsHU+mB8dQScmG4AVIH4R0zza7S7bBy67XTR3KZweXoe/2W2PaRlZlWGVeAZcmhVJmV6LS+ZGqDlkJ6blfpELqVriqGcElt4u/KfPEjtG7PvhR4WOnpBoU8ngumNuvjJIM9FdogkCnPzRcyrTM6ufdi5iOt2CxgC4x1KZ2tbVK3ArYpqd4/eAELczzNncOihiMqkAbW7dmaleM6VgohfOmolmR8TT9H2tPLJQYTedmKJ7Q4bGBELeOfiwgwrQJufMMisaJ28Eu4hpdQ2ZqwUqtjaTmcIerLxNM4TMLakQesER8j2ru5t6iAgTO2rLqMPfMfmbpu+3UTLgl477s2+Jw7KWrQcCdfh9abK55asy+yFzC6UqSycmu1eeYhDyakyCOChsMYCNgZWZ9iImk7e7m0GbaXaeoFrYtnh2hjVOYoI+Nk0oLXpBriV7/YUpE/kgVHohn5voq2ebOxLM6WGxNYRSCdHVgq1EmxPqG3cMoBPE/MEMPuEaFOqZJxuDMiEk72fQC53wU/zzrMwcEHIKlEz7a71REROmQr1rmHzbGDyr9nFyadmh6+h87JEIfeCN282pa/Xlo3ifzSMXn163uyhbz55YZtGhOMbSIFtYZz1f4Ac8KgJlPSAI0vsxz/N7GsTl74qQkkW+Rj2lXeXUPX4y/PSqjTMk4C7LHXGebD8rO6t5dCmusbTL6rlAdZQ9HEA8REqLS9btF9bR4Sj8uegGVJdrF+MtDYxvF5hMn7YpQw6TCRXHs2ilSeLh16l1ouUhN3ASDiB+KU9LpbqcwuvFUMMz31LOM1f4Tdo1Bi7awmBhl/Q+XY3rJ1x4XXpeNhx0Stpa+MD6EHs181cp9FEpKuszbBqeKOdOUBPwErws6p5QL1NmDc8m8TWbr7pPXVOhY54z/yvo14XwYefrlVzVF/HocOfqqqnxwYOvfS3WyoaUYss/ib/YpcMyBPGS7r0aUul16vy9yPt0mFznE+pnUf7csDdMmpHBVtHthUhfJOa5WEVomP40wGmYE6UicH9UbUWYDKqJzI7OZ1NUW6HF5e8Jb6spAJurWzPlvRrtptKi6mKDVeIuGFNvQvTlYbC9+I71wg09EPLm621qTZg5oEEiPA6++fpwiVkXrTbR28rswp7vRBFq2FOCgixhSWU65qTWWBaB3ZEilLw756T20KvW2AkJGSxGuRU/8VUEBmaWafbrIKybC/uEmPcSMl54fCeuIWa7a5kkROwTUubbMbw83ghRce+sqDyKXiLf2tzKHQNm2SFJ9VSp590FIZ7/q7KaptJjsR/teUjGKrsciiQ55vc0zfNrUvYzONFJ238zpZY37SK5uQAAAABJRU5ErkJggg==;imageBorder=default;" parent="1" vertex="1">
          <mxGeometry x="175" y="399.00000000000006" width="88" height="85.3" as="geometry" />
        </mxCell>
      </root>
    </mxGraphModel>
  </diagram>
  <diagram id="EVjJ4SEPKlZ5nqtMztup" name="Final Diagram">
    <mxGraphModel dx="1644" dy="500" grid="1" gridSize="10" guides="1" tooltips="1" connect="1" arrows="1" fold="1" page="1" pageScale="1" pageWidth="850" pageHeight="1100" math="0" shadow="0">
      <root>
        <mxCell id="0" />
        <mxCell id="1" parent="0" />
        <mxCell id="EeC9parUH1I35IiWLX3Q-1" value="C" style="group" parent="1" vertex="1" connectable="0">
          <mxGeometry x="-161" y="119" width="180" height="440" as="geometry" />
        </mxCell>
        <mxCell id="EeC9parUH1I35IiWLX3Q-2" value="" style="rounded=0;whiteSpace=wrap;html=1;fillColor=default;" parent="EeC9parUH1I35IiWLX3Q-1" vertex="1">
          <mxGeometry x="15" width="150" height="380" as="geometry" />
        </mxCell>
        <mxCell id="EeC9parUH1I35IiWLX3Q-3" value="" style="verticalLabelPosition=bottom;html=1;verticalAlign=top;align=center;strokeColor=none;fillColor=#00BEF2;shape=mxgraph.azure.storage_blob;" parent="EeC9parUH1I35IiWLX3Q-1" vertex="1">
          <mxGeometry x="60" y="20" width="60" height="60" as="geometry" />
        </mxCell>
        <mxCell id="EeC9parUH1I35IiWLX3Q-4" value="Warranty Documents" style="rounded=1;whiteSpace=wrap;html=1;" parent="EeC9parUH1I35IiWLX3Q-1" vertex="1">
          <mxGeometry x="30" y="95" width="120" height="25" as="geometry" />
        </mxCell>
        <mxCell id="EeC9parUH1I35IiWLX3Q-5" value="Customer Queries" style="rounded=1;whiteSpace=wrap;html=1;" parent="EeC9parUH1I35IiWLX3Q-1" vertex="1">
          <mxGeometry x="30" y="210" width="120" height="30" as="geometry" />
        </mxCell>
        <mxCell id="EeC9parUH1I35IiWLX3Q-6" value="Product Information" style="rounded=1;whiteSpace=wrap;html=1;" parent="EeC9parUH1I35IiWLX3Q-1" vertex="1">
          <mxGeometry x="30" y="338" width="120" height="25" as="geometry" />
        </mxCell>
        <mxCell id="EeC9parUH1I35IiWLX3Q-7" value="Data Sources" style="rounded=1;whiteSpace=wrap;html=1;" parent="EeC9parUH1I35IiWLX3Q-1" vertex="1">
          <mxGeometry y="410" width="180" height="30" as="geometry" />
        </mxCell>
        <mxCell id="EeC9parUH1I35IiWLX3Q-8" value="" style="verticalLabelPosition=bottom;html=1;verticalAlign=top;align=center;strokeColor=none;fillColor=#00BEF2;shape=mxgraph.azure.storage_blob;" parent="EeC9parUH1I35IiWLX3Q-1" vertex="1">
          <mxGeometry x="60" y="264" width="60" height="60" as="geometry" />
        </mxCell>
        <mxCell id="EeC9parUH1I35IiWLX3Q-9" value="" style="verticalLabelPosition=bottom;html=1;verticalAlign=top;align=center;strokeColor=none;fillColor=#00BEF2;shape=mxgraph.azure.storage_blob;" parent="EeC9parUH1I35IiWLX3Q-1" vertex="1">
          <mxGeometry x="60" y="143" width="60" height="60" as="geometry" />
        </mxCell>
        <mxCell id="C9heUB9sdtOK_IckrZOV-1" value="" style="shape=image;verticalLabelPosition=bottom;labelBackgroundColor=default;verticalAlign=top;aspect=fixed;imageAspect=0;image=data:image/png,iVBORw0KGgoAAAANSUhEUgAAAOQAAADdCAMAAACc/C7aAAAAYFBMVEX///8ArdQAq9MAp9EAqdIAptH4/f7k9PnP6/QArtR+zOTx+vzs+Pv0+/3o9vrg8vhxx+GW1ei14e8ztdjW7vbB5vGi2etIu9tewd7R7PWg2Oqy3+6P0udkw999y+M+uNmTwQumAAAK8ElEQVR4nN1da5eiMAxd2qLgY0RB8YH6///lFp1xQHnctCmFuWfPnpkPow1t05vkNvz7NzQOeSDyw+BfOyTmsQo0ZLr0PRKHCETwgEh9j8QdFt82BoHa+h6LK8xl8IJa+x6NI+Ti10hx9T0aN9hXJlI7n5Pv8ThBIKpGBn/S92xVzcZAXnyPiB9LWbdRz+vM95jYcRTBu5UL32Pixul9IssFO/c9KmaknzYG4u57VLw4NEyknsq973FxYvaxIZ9TGfseGCcS1WhkoArfI+PDpnGxPhbs34m58ubVWi7Yo++xcWHXOpF6KiPfo2NC0DqRwZ+hsEWL1/meyj+R8Fl1LNYS6i9Q2E/S+mbkzfcI7RGF3TbqBbvxPUZrNJHWN0yewp57duRjKne+R2mHdc+GfEAI38O0QxtprWPaFLadtL4t2JXvkVrgjtk4aQq7gxZriXCyFHbWSVrrmCyFLXAbA3n2PVozfPVynSrENCtA7aFyE1Tie7wm2IPHxw/CKVLYmDSRwSR9z3t9px9qchQWIq11TI/CXskTOb0KUEY6Pn4gv3yPmwQgVG6ayklR2Avx+HhN5YQqQBTSWp/KCVWAFoY2TknENDfyOt9WToXC0kjrm5ETETFRSWsdMvM9fghk0lrHJCgsnbS+TeUEREwfoiQqpkBh++o7gJWjrwBFthOpEY5dxGRGWusQuW8rutEsSqJi3BS2RZRExbgp7M3y+PjBmCksWt/pRzheERNa3+nHeHX4XaIkKkYrYjINlRsxUgrbLUqiYpwipj5R0g/Q6RZjFDFhpFXIWGBPY4wiJoy0ikDHxHtsXY9QxISR1qfTxMjf+CgsOO7v4y/GnsjIKkBrcAV+E5mmWyINjyTwa9Q7QFHSi5JeIS81LhETRlorwcUKm/lwTCImjLRWw0Qs3TWmChAmSqp7SyxxOSIKi5GYsFZ9BFPQo6GwmCjpvY6MFRPGQmG/QJr29mdgWWgkOnxsStRHYhwr8I1DxGS8uWYggRhDBQhzk2HDUC+YlSPQ4WMHXvOiw0j950IfGktsNlRj9g0TwvivAIEktOUgmAaFzaiktQ6wzuf5GjsYKrfWNs4ToLCYf+waI+ibPVaAZgLbUx2SOeyU9VkBwjiL6PQbIF/yVgEC2Wf3CTAHzyBfIiYwjuhJR2ExjC8KC5LWXlYGRqN+KCyW8O+/JABedvISPtuQ1jqwDJEPCouSVsBhgBTWQxYWq+9g2Qssazu8Dh8UJWEbaY192OAiJoy0otcix1kBAkcFE2swCzsohQVFSQrO8o+RwmKiJEqwi/mxISksWN+h+Hw0eTtcBejuYAdh2pHhdPiYKInqC7HYNByqmSg4HKKuAdRzDURhwYVFVqiARc5BKOwKDJXJhZqNqw82AEhaDR44djANQWFZSWsdYAVogGvsqcMyOHbt0j2FpYmSqLDNVfOAKEqiAhXo8Rr1DqooiQqwAuSUwoL1HfMnDYqYnHZioouSqABFTA4prIkoiQrvIiYTURIVYPjsjMKC9R1LRuJXxITFtcKWW4IU1pGICSyyWcuNfYqYBlP8gVkyJxTWXJREBdg5xIGIia++0w+QwrLr8K1ESVScPFWA7ERJVPhpJgreceDKcIPrhrkTE+X+Dgd8iJjsRUlUeKCw2MnFeYNs+AoQ2CmJVWMM8is2CjvHDmf9XIs9WzQLKqEkl4gJ7pQklFTxbcdzfX5YCkvrlCSUCu8Fx+4EdUI8e8SgU5KQqb2dQ+rwzS6d65Ubby036HA6fPTSeYOdIjxapYGx3ODH1SEDWHVKEio+W0TwQ4mY+t+E0WemWhh7WzBfr2xFTAydkpS6mZo5jIiJp1OSnk3DRQvW0Ky2Plgx7IcwLF9gu8WOwnJ1StJQgdHjBkVMFv3wwRQoBiFzgxgXFDFZvE6Or1PS00yTB45xEfMKEGenpCdkSvf2oGrIlMKydkr6MZMcALoVMfF2SvqByqkRoEsREyhKIkMoYmIGbBRnVAGyb+/ZZmVIzJe6EzFxtPdsg8xJTx0VMdGdGhwqCw2lpP4nQ6nDKyll+Zvq+ntF87KuKOwBeHpP4+Jjsj3soiz7ms30BM1mq3l22h2K612bLdoOANrGdCNi6snTP6xLk+1u08k0vvbnJFWyyVARUrwhKGIiUtiOcFXbJ/JiP0e31TraHvWffD53ivtxocNvuz2lF+B9sTegoNk213NfHylF9gueZ6TKYcMeEKWBRWSRzNgvAllbIJKQM+XvxPQhShIqjBd7+2R1pO2sTKci+EOMY0pYh19/E4Z2Mup4YKsE7q+VZUvYRGCKG/Y9laWhF6m4MUu8ltv4NWDCVDKLmF6uTCjBkvD/wP7+XLWUMJBZh/8stQgZcM9hBVlemkl6IyNYAQJ99kqpQFlmv/uRHUVK+gpmEdPqdl+MsHU+mB8dQScmG4AVIH4R0zza7S7bBy67XTR3KZweXoe/2W2PaRlZlWGVeAZcmhVJmV6LS+ZGqDlkJ6blfpELqVriqGcElt4u/KfPEjtG7PvhR4WOnpBoU8ngumNuvjJIM9FdogkCnPzRcyrTM6ufdi5iOt2CxgC4x1KZ2tbVK3ArYpqd4/eAELczzNncOihiMqkAbW7dmaleM6VgohfOmolmR8TT9H2tPLJQYTedmKJ7Q4bGBELeOfiwgwrQJufMMisaJ28Eu4hpdQ2ZqwUqtjaTmcIerLxNM4TMLakQesER8j2ru5t6iAgTO2rLqMPfMfmbpu+3UTLgl477s2+Jw7KWrQcCdfh9abK55asy+yFzC6UqSycmu1eeYhDyakyCOChsMYCNgZWZ9iImk7e7m0GbaXaeoFrYtnh2hjVOYoI+Nk0oLXpBriV7/YUpE/kgVHohn5voq2ebOxLM6WGxNYRSCdHVgq1EmxPqG3cMoBPE/MEMPuEaFOqZJxuDMiEk72fQC53wU/zzrMwcEHIKlEz7a71REROmQr1rmHzbGDyr9nFyadmh6+h87JEIfeCN282pa/Xlo3ifzSMXn163uyhbz55YZtGhOMbSIFtYZz1f4Ac8KgJlPSAI0vsxz/N7GsTl74qQkkW+Rj2lXeXUPX4y/PSqjTMk4C7LHXGebD8rO6t5dCmusbTL6rlAdZQ9HEA8REqLS9btF9bR4Sj8uegGVJdrF+MtDYxvF5hMn7YpQw6TCRXHs2ilSeLh16l1ouUhN3ASDiB+KU9LpbqcwuvFUMMz31LOM1f4Tdo1Bi7awmBhl/Q+XY3rJ1x4XXpeNhx0Stpa+MD6EHs181cp9FEpKuszbBqeKOdOUBPwErws6p5QL1NmDc8m8TWbr7pPXVOhY54z/yvo14XwYefrlVzVF/HocOfqqqnxwYOvfS3WyoaUYss/ib/YpcMyBPGS7r0aUul16vy9yPt0mFznE+pnUf7csDdMmpHBVtHthUhfJOa5WEVomP40wGmYE6UicH9UbUWYDKqJzI7OZ1NUW6HF5e8Jb6spAJurWzPlvRrtptKi6mKDVeIuGFNvQvTlYbC9+I71wg09EPLm621qTZg5oEEiPA6++fpwiVkXrTbR28rswp7vRBFq2FOCgixhSWU65qTWWBaB3ZEilLw756T20KvW2AkJGSxGuRU/8VUEBmaWafbrIKybC/uEmPcSMl54fCeuIWa7a5kkROwTUubbMbw83ghRce+sqDyKXiLf2tzKHQNm2SFJ9VSp590FIZ7/q7KaptJjsR/teUjGKrsciiQ55vc0zfNrUvYzONFJ238zpZY37SK5uQAAAABJRU5ErkJggg==;imageBorder=default;" parent="1" vertex="1">
          <mxGeometry x="190" y="119" width="88" height="85.3" as="geometry" />
        </mxCell>
        <mxCell id="pxy1sttPk5wmRTI0gHHl-1" value="" style="shape=image;verticalLabelPosition=bottom;labelBackgroundColor=default;verticalAlign=top;aspect=fixed;imageAspect=0;image=data:image/png,iVBORw0KGgoAAAANSUhEUgAAAOQAAADdCAMAAACc/C7aAAAAYFBMVEX///8ArdQAq9MAp9EAqdIAptH4/f7k9PnP6/QArtR+zOTx+vzs+Pv0+/3o9vrg8vhxx+GW1ei14e8ztdjW7vbB5vGi2etIu9tewd7R7PWg2Oqy3+6P0udkw999y+M+uNmTwQumAAAK8ElEQVR4nN1da5eiMAxd2qLgY0RB8YH6///lFp1xQHnctCmFuWfPnpkPow1t05vkNvz7NzQOeSDyw+BfOyTmsQo0ZLr0PRKHCETwgEh9j8QdFt82BoHa+h6LK8xl8IJa+x6NI+Ti10hx9T0aN9hXJlI7n5Pv8ThBIKpGBn/S92xVzcZAXnyPiB9LWbdRz+vM95jYcRTBu5UL32Pixul9IssFO/c9KmaknzYG4u57VLw4NEyknsq973FxYvaxIZ9TGfseGCcS1WhkoArfI+PDpnGxPhbs34m58ubVWi7Yo++xcWHXOpF6KiPfo2NC0DqRwZ+hsEWL1/meyj+R8Fl1LNYS6i9Q2E/S+mbkzfcI7RGF3TbqBbvxPUZrNJHWN0yewp57duRjKne+R2mHdc+GfEAI38O0QxtprWPaFLadtL4t2JXvkVrgjtk4aQq7gxZriXCyFHbWSVrrmCyFLXAbA3n2PVozfPVynSrENCtA7aFyE1Tie7wm2IPHxw/CKVLYmDSRwSR9z3t9px9qchQWIq11TI/CXskTOb0KUEY6Pn4gv3yPmwQgVG6ayklR2Avx+HhN5YQqQBTSWp/KCVWAFoY2TknENDfyOt9WToXC0kjrm5ETETFRSWsdMvM9fghk0lrHJCgsnbS+TeUEREwfoiQqpkBh++o7gJWjrwBFthOpEY5dxGRGWusQuW8rutEsSqJi3BS2RZRExbgp7M3y+PjBmCksWt/pRzheERNa3+nHeHX4XaIkKkYrYjINlRsxUgrbLUqiYpwipj5R0g/Q6RZjFDFhpFXIWGBPY4wiJoy0ikDHxHtsXY9QxISR1qfTxMjf+CgsOO7v4y/GnsjIKkBrcAV+E5mmWyINjyTwa9Q7QFHSi5JeIS81LhETRlorwcUKm/lwTCImjLRWw0Qs3TWmChAmSqp7SyxxOSIKi5GYsFZ9BFPQo6GwmCjpvY6MFRPGQmG/QJr29mdgWWgkOnxsStRHYhwr8I1DxGS8uWYggRhDBQhzk2HDUC+YlSPQ4WMHXvOiw0j950IfGktsNlRj9g0TwvivAIEktOUgmAaFzaiktQ6wzuf5GjsYKrfWNs4ToLCYf+waI+ibPVaAZgLbUx2SOeyU9VkBwjiL6PQbIF/yVgEC2Wf3CTAHzyBfIiYwjuhJR2ExjC8KC5LWXlYGRqN+KCyW8O+/JABedvISPtuQ1jqwDJEPCouSVsBhgBTWQxYWq+9g2Qssazu8Dh8UJWEbaY192OAiJoy0otcix1kBAkcFE2swCzsohQVFSQrO8o+RwmKiJEqwi/mxISksWN+h+Hw0eTtcBejuYAdh2pHhdPiYKInqC7HYNByqmSg4HKKuAdRzDURhwYVFVqiARc5BKOwKDJXJhZqNqw82AEhaDR44djANQWFZSWsdYAVogGvsqcMyOHbt0j2FpYmSqLDNVfOAKEqiAhXo8Rr1DqooiQqwAuSUwoL1HfMnDYqYnHZioouSqABFTA4prIkoiQrvIiYTURIVYPjsjMKC9R1LRuJXxITFtcKWW4IU1pGICSyyWcuNfYqYBlP8gVkyJxTWXJREBdg5xIGIia++0w+QwrLr8K1ESVScPFWA7ERJVPhpJgreceDKcIPrhrkTE+X+Dgd8iJjsRUlUeKCw2MnFeYNs+AoQ2CmJVWMM8is2CjvHDmf9XIs9WzQLKqEkl4gJ7pQklFTxbcdzfX5YCkvrlCSUCu8Fx+4EdUI8e8SgU5KQqb2dQ+rwzS6d65Ubby036HA6fPTSeYOdIjxapYGx3ODH1SEDWHVKEio+W0TwQ4mY+t+E0WemWhh7WzBfr2xFTAydkpS6mZo5jIiJp1OSnk3DRQvW0Ky2Plgx7IcwLF9gu8WOwnJ1StJQgdHjBkVMFv3wwRQoBiFzgxgXFDFZvE6Or1PS00yTB45xEfMKEGenpCdkSvf2oGrIlMKydkr6MZMcALoVMfF2SvqByqkRoEsREyhKIkMoYmIGbBRnVAGyb+/ZZmVIzJe6EzFxtPdsg8xJTx0VMdGdGhwqCw2lpP4nQ6nDKyll+Zvq+ntF87KuKOwBeHpP4+Jjsj3soiz7ms30BM1mq3l22h2K612bLdoOANrGdCNi6snTP6xLk+1u08k0vvbnJFWyyVARUrwhKGIiUtiOcFXbJ/JiP0e31TraHvWffD53ivtxocNvuz2lF+B9sTegoNk213NfHylF9gueZ6TKYcMeEKWBRWSRzNgvAllbIJKQM+XvxPQhShIqjBd7+2R1pO2sTKci+EOMY0pYh19/E4Z2Mup4YKsE7q+VZUvYRGCKG/Y9laWhF6m4MUu8ltv4NWDCVDKLmF6uTCjBkvD/wP7+XLWUMJBZh/8stQgZcM9hBVlemkl6IyNYAQJ99kqpQFlmv/uRHUVK+gpmEdPqdl+MsHU+mB8dQScmG4AVIH4R0zza7S7bBy67XTR3KZweXoe/2W2PaRlZlWGVeAZcmhVJmV6LS+ZGqDlkJ6blfpELqVriqGcElt4u/KfPEjtG7PvhR4WOnpBoU8ngumNuvjJIM9FdogkCnPzRcyrTM6ufdi5iOt2CxgC4x1KZ2tbVK3ArYpqd4/eAELczzNncOihiMqkAbW7dmaleM6VgohfOmolmR8TT9H2tPLJQYTedmKJ7Q4bGBELeOfiwgwrQJufMMisaJ28Eu4hpdQ2ZqwUqtjaTmcIerLxNM4TMLakQesER8j2ru5t6iAgTO2rLqMPfMfmbpu+3UTLgl477s2+Jw7KWrQcCdfh9abK55asy+yFzC6UqSycmu1eeYhDyakyCOChsMYCNgZWZ9iImk7e7m0GbaXaeoFrYtnh2hjVOYoI+Nk0oLXpBriV7/YUpE/kgVHohn5voq2ebOxLM6WGxNYRSCdHVgq1EmxPqG3cMoBPE/MEMPuEaFOqZJxuDMiEk72fQC53wU/zzrMwcEHIKlEz7a71REROmQr1rmHzbGDyr9nFyadmh6+h87JEIfeCN282pa/Xlo3ifzSMXn163uyhbz55YZtGhOMbSIFtYZz1f4Ac8KgJlPSAI0vsxz/N7GsTl74qQkkW+Rj2lXeXUPX4y/PSqjTMk4C7LHXGebD8rO6t5dCmusbTL6rlAdZQ9HEA8REqLS9btF9bR4Sj8uegGVJdrF+MtDYxvF5hMn7YpQw6TCRXHs2ilSeLh16l1ouUhN3ASDiB+KU9LpbqcwuvFUMMz31LOM1f4Tdo1Bi7awmBhl/Q+XY3rJ1x4XXpeNhx0Stpa+MD6EHs181cp9FEpKuszbBqeKOdOUBPwErws6p5QL1NmDc8m8TWbr7pPXVOhY54z/yvo14XwYefrlVzVF/HocOfqqqnxwYOvfS3WyoaUYss/ib/YpcMyBPGS7r0aUul16vy9yPt0mFznE+pnUf7csDdMmpHBVtHthUhfJOa5WEVomP40wGmYE6UicH9UbUWYDKqJzI7OZ1NUW6HF5e8Jb6spAJurWzPlvRrtptKi6mKDVeIuGFNvQvTlYbC9+I71wg09EPLm621qTZg5oEEiPA6++fpwiVkXrTbR28rswp7vRBFq2FOCgixhSWU65qTWWBaB3ZEilLw756T20KvW2AkJGSxGuRU/8VUEBmaWafbrIKybC/uEmPcSMl54fCeuIWa7a5kkROwTUubbMbw83ghRce+sqDyKXiLf2tzKHQNm2SFJ9VSp590FIZ7/q7KaptJjsR/teUjGKrsciiQ55vc0zfNrUvYzONFJ238zpZY37SK5uQAAAABJRU5ErkJggg==;imageBorder=default;" parent="1" vertex="1">
          <mxGeometry x="190" y="250.00000000000006" width="88" height="85.3" as="geometry" />
        </mxCell>
        <mxCell id="pxy1sttPk5wmRTI0gHHl-2" value="" style="shape=image;verticalLabelPosition=bottom;labelBackgroundColor=default;verticalAlign=top;aspect=fixed;imageAspect=0;image=data:image/png,iVBORw0KGgoAAAANSUhEUgAAAOQAAADdCAMAAACc/C7aAAAAYFBMVEX///8ArdQAq9MAp9EAqdIAptH4/f7k9PnP6/QArtR+zOTx+vzs+Pv0+/3o9vrg8vhxx+GW1ei14e8ztdjW7vbB5vGi2etIu9tewd7R7PWg2Oqy3+6P0udkw999y+M+uNmTwQumAAAK8ElEQVR4nN1da5eiMAxd2qLgY0RB8YH6///lFp1xQHnctCmFuWfPnpkPow1t05vkNvz7NzQOeSDyw+BfOyTmsQo0ZLr0PRKHCETwgEh9j8QdFt82BoHa+h6LK8xl8IJa+x6NI+Ti10hx9T0aN9hXJlI7n5Pv8ThBIKpGBn/S92xVzcZAXnyPiB9LWbdRz+vM95jYcRTBu5UL32Pixul9IssFO/c9KmaknzYG4u57VLw4NEyknsq973FxYvaxIZ9TGfseGCcS1WhkoArfI+PDpnGxPhbs34m58ubVWi7Yo++xcWHXOpF6KiPfo2NC0DqRwZ+hsEWL1/meyj+R8Fl1LNYS6i9Q2E/S+mbkzfcI7RGF3TbqBbvxPUZrNJHWN0yewp57duRjKne+R2mHdc+GfEAI38O0QxtprWPaFLadtL4t2JXvkVrgjtk4aQq7gxZriXCyFHbWSVrrmCyFLXAbA3n2PVozfPVynSrENCtA7aFyE1Tie7wm2IPHxw/CKVLYmDSRwSR9z3t9px9qchQWIq11TI/CXskTOb0KUEY6Pn4gv3yPmwQgVG6ayklR2Avx+HhN5YQqQBTSWp/KCVWAFoY2TknENDfyOt9WToXC0kjrm5ETETFRSWsdMvM9fghk0lrHJCgsnbS+TeUEREwfoiQqpkBh++o7gJWjrwBFthOpEY5dxGRGWusQuW8rutEsSqJi3BS2RZRExbgp7M3y+PjBmCksWt/pRzheERNa3+nHeHX4XaIkKkYrYjINlRsxUgrbLUqiYpwipj5R0g/Q6RZjFDFhpFXIWGBPY4wiJoy0ikDHxHtsXY9QxISR1qfTxMjf+CgsOO7v4y/GnsjIKkBrcAV+E5mmWyINjyTwa9Q7QFHSi5JeIS81LhETRlorwcUKm/lwTCImjLRWw0Qs3TWmChAmSqp7SyxxOSIKi5GYsFZ9BFPQo6GwmCjpvY6MFRPGQmG/QJr29mdgWWgkOnxsStRHYhwr8I1DxGS8uWYggRhDBQhzk2HDUC+YlSPQ4WMHXvOiw0j950IfGktsNlRj9g0TwvivAIEktOUgmAaFzaiktQ6wzuf5GjsYKrfWNs4ToLCYf+waI+ibPVaAZgLbUx2SOeyU9VkBwjiL6PQbIF/yVgEC2Wf3CTAHzyBfIiYwjuhJR2ExjC8KC5LWXlYGRqN+KCyW8O+/JABedvISPtuQ1jqwDJEPCouSVsBhgBTWQxYWq+9g2Qssazu8Dh8UJWEbaY192OAiJoy0otcix1kBAkcFE2swCzsohQVFSQrO8o+RwmKiJEqwi/mxISksWN+h+Hw0eTtcBejuYAdh2pHhdPiYKInqC7HYNByqmSg4HKKuAdRzDURhwYVFVqiARc5BKOwKDJXJhZqNqw82AEhaDR44djANQWFZSWsdYAVogGvsqcMyOHbt0j2FpYmSqLDNVfOAKEqiAhXo8Rr1DqooiQqwAuSUwoL1HfMnDYqYnHZioouSqABFTA4prIkoiQrvIiYTURIVYPjsjMKC9R1LRuJXxITFtcKWW4IU1pGICSyyWcuNfYqYBlP8gVkyJxTWXJREBdg5xIGIia++0w+QwrLr8K1ESVScPFWA7ERJVPhpJgreceDKcIPrhrkTE+X+Dgd8iJjsRUlUeKCw2MnFeYNs+AoQ2CmJVWMM8is2CjvHDmf9XIs9WzQLKqEkl4gJ7pQklFTxbcdzfX5YCkvrlCSUCu8Fx+4EdUI8e8SgU5KQqb2dQ+rwzS6d65Ubby036HA6fPTSeYOdIjxapYGx3ODH1SEDWHVKEio+W0TwQ4mY+t+E0WemWhh7WzBfr2xFTAydkpS6mZo5jIiJp1OSnk3DRQvW0Ky2Plgx7IcwLF9gu8WOwnJ1StJQgdHjBkVMFv3wwRQoBiFzgxgXFDFZvE6Or1PS00yTB45xEfMKEGenpCdkSvf2oGrIlMKydkr6MZMcALoVMfF2SvqByqkRoEsREyhKIkMoYmIGbBRnVAGyb+/ZZmVIzJe6EzFxtPdsg8xJTx0VMdGdGhwqCw2lpP4nQ6nDKyll+Zvq+ntF87KuKOwBeHpP4+Jjsj3soiz7ms30BM1mq3l22h2K612bLdoOANrGdCNi6snTP6xLk+1u08k0vvbnJFWyyVARUrwhKGIiUtiOcFXbJ/JiP0e31TraHvWffD53ivtxocNvuz2lF+B9sTegoNk213NfHylF9gueZ6TKYcMeEKWBRWSRzNgvAllbIJKQM+XvxPQhShIqjBd7+2R1pO2sTKci+EOMY0pYh19/E4Z2Mup4YKsE7q+VZUvYRGCKG/Y9laWhF6m4MUu8ltv4NWDCVDKLmF6uTCjBkvD/wP7+XLWUMJBZh/8stQgZcM9hBVlemkl6IyNYAQJ99kqpQFlmv/uRHUVK+gpmEdPqdl+MsHU+mB8dQScmG4AVIH4R0zza7S7bBy67XTR3KZweXoe/2W2PaRlZlWGVeAZcmhVJmV6LS+ZGqDlkJ6blfpELqVriqGcElt4u/KfPEjtG7PvhR4WOnpBoU8ngumNuvjJIM9FdogkCnPzRcyrTM6ufdi5iOt2CxgC4x1KZ2tbVK3ArYpqd4/eAELczzNncOihiMqkAbW7dmaleM6VgohfOmolmR8TT9H2tPLJQYTedmKJ7Q4bGBELeOfiwgwrQJufMMisaJ28Eu4hpdQ2ZqwUqtjaTmcIerLxNM4TMLakQesER8j2ru5t6iAgTO2rLqMPfMfmbpu+3UTLgl477s2+Jw7KWrQcCdfh9abK55asy+yFzC6UqSycmu1eeYhDyakyCOChsMYCNgZWZ9iImk7e7m0GbaXaeoFrYtnh2hjVOYoI+Nk0oLXpBriV7/YUpE/kgVHohn5voq2ebOxLM6WGxNYRSCdHVgq1EmxPqG3cMoBPE/MEMPuEaFOqZJxuDMiEk72fQC53wU/zzrMwcEHIKlEz7a71REROmQr1rmHzbGDyr9nFyadmh6+h87JEIfeCN282pa/Xlo3ifzSMXn163uyhbz55YZtGhOMbSIFtYZz1f4Ac8KgJlPSAI0vsxz/N7GsTl74qQkkW+Rj2lXeXUPX4y/PSqjTMk4C7LHXGebD8rO6t5dCmusbTL6rlAdZQ9HEA8REqLS9btF9bR4Sj8uegGVJdrF+MtDYxvF5hMn7YpQw6TCRXHs2ilSeLh16l1ouUhN3ASDiB+KU9LpbqcwuvFUMMz31LOM1f4Tdo1Bi7awmBhl/Q+XY3rJ1x4XXpeNhx0Stpa+MD6EHs181cp9FEpKuszbBqeKOdOUBPwErws6p5QL1NmDc8m8TWbr7pPXVOhY54z/yvo14XwYefrlVzVF/HocOfqqqnxwYOvfS3WyoaUYss/ib/YpcMyBPGS7r0aUul16vy9yPt0mFznE+pnUf7csDdMmpHBVtHthUhfJOa5WEVomP40wGmYE6UicH9UbUWYDKqJzI7OZ1NUW6HF5e8Jb6spAJurWzPlvRrtptKi6mKDVeIuGFNvQvTlYbC9+I71wg09EPLm621qTZg5oEEiPA6++fpwiVkXrTbR28rswp7vRBFq2FOCgixhSWU65qTWWBaB3ZEilLw756T20KvW2AkJGSxGuRU/8VUEBmaWafbrIKybC/uEmPcSMl54fCeuIWa7a5kkROwTUubbMbw83ghRce+sqDyKXiLf2tzKHQNm2SFJ9VSp590FIZ7/q7KaptJjsR/teUjGKrsciiQ55vc0zfNrUvYzONFJ238zpZY37SK5uQAAAABJRU5ErkJggg==;imageBorder=default;" parent="1" vertex="1">
          <mxGeometry x="190" y="390.00000000000006" width="88" height="85.3" as="geometry" />
        </mxCell>
        <mxCell id="LHdNXINGxpkXzfP650Z_-1" value="Warranty Table" style="rounded=0;whiteSpace=wrap;html=1;" parent="1" vertex="1">
          <mxGeometry x="174" y="210" width="120" height="25" as="geometry" />
        </mxCell>
        <mxCell id="HTDUo6lKsYA7PuLIjeJC-1" value="Customer Queries Table" style="rounded=0;whiteSpace=wrap;html=1;" parent="1" vertex="1">
          <mxGeometry x="174" y="350" width="120" height="25" as="geometry" />
        </mxCell>
        <mxCell id="iWX9DO8K4DJyazv8XJJ9-1" value="Product Table with Warranty info" style="rounded=0;whiteSpace=wrap;html=1;" parent="1" vertex="1">
          <mxGeometry x="365" y="490" width="120" height="40" as="geometry" />
        </mxCell>
        <mxCell id="iWX9DO8K4DJyazv8XJJ9-2" value="" style="sketch=0;outlineConnect=0;fontColor=#232F3E;gradientColor=none;fillColor=#7AA116;strokeColor=none;dashed=0;verticalLabelPosition=bottom;verticalAlign=top;align=center;html=1;fontSize=12;fontStyle=0;aspect=fixed;pointerEvents=1;shape=mxgraph.aws4.notebook;" parent="1" vertex="1">
          <mxGeometry x="85" y="130" width="28" height="32.12" as="geometry" />
        </mxCell>
        <mxCell id="iWX9DO8K4DJyazv8XJJ9-3" value="" style="sketch=0;outlineConnect=0;fontColor=#232F3E;gradientColor=none;fillColor=#7AA116;strokeColor=none;dashed=0;verticalLabelPosition=bottom;verticalAlign=top;align=center;html=1;fontSize=12;fontStyle=0;aspect=fixed;pointerEvents=1;shape=mxgraph.aws4.notebook;" parent="1" vertex="1">
          <mxGeometry x="83" y="250.00000000000003" width="28" height="32.12" as="geometry" />
        </mxCell>
        <mxCell id="iWX9DO8K4DJyazv8XJJ9-4" value="" style="sketch=0;outlineConnect=0;fontColor=#232F3E;gradientColor=none;fillColor=#7AA116;strokeColor=none;dashed=0;verticalLabelPosition=bottom;verticalAlign=top;align=center;html=1;fontSize=12;fontStyle=0;aspect=fixed;pointerEvents=1;shape=mxgraph.aws4.notebook;" parent="1" vertex="1">
          <mxGeometry x="80" y="380" width="28" height="32.12" as="geometry" />
        </mxCell>
        <mxCell id="9L3M9KfpP5Nj1_16fEhw-1" value="Extract Product id and Warranty info" style="rounded=1;whiteSpace=wrap;html=1;" parent="1" vertex="1">
          <mxGeometry x="34" y="180" width="130" height="40" as="geometry" />
        </mxCell>
        <mxCell id="9L3M9KfpP5Nj1_16fEhw-2" value="" style="endArrow=classic;html=1;rounded=0;" parent="1" edge="1">
          <mxGeometry width="50" height="50" relative="1" as="geometry">
            <mxPoint x="49" y="235" as="sourcePoint" />
            <mxPoint x="149" y="235" as="targetPoint" />
          </mxGeometry>
        </mxCell>
        <mxCell id="9L3M9KfpP5Nj1_16fEhw-4" value="" style="endArrow=classic;html=1;rounded=0;" parent="1" edge="1">
          <mxGeometry width="50" height="50" relative="1" as="geometry">
            <mxPoint x="49" y="335.3" as="sourcePoint" />
            <mxPoint x="149" y="335.3" as="targetPoint" />
          </mxGeometry>
        </mxCell>
        <mxCell id="9L3M9KfpP5Nj1_16fEhw-5" value="" style="endArrow=classic;html=1;rounded=0;" parent="1" edge="1">
          <mxGeometry width="50" height="50" relative="1" as="geometry">
            <mxPoint x="49" y="475.3" as="sourcePoint" />
            <mxPoint x="149" y="475.3" as="targetPoint" />
          </mxGeometry>
        </mxCell>
        <mxCell id="9L3M9KfpP5Nj1_16fEhw-6" value="Extract the customer queries information and dedup&lt;span style=&quot;color: rgba(0, 0, 0, 0); font-family: monospace; font-size: 0px; text-align: start; text-wrap-mode: nowrap;&quot;&gt;%3CmxGraphModel%3E%3Croot%3E%3CmxCell%20id%3D%220%22%2F%3E%3CmxCell%20id%3D%221%22%20parent%3D%220%22%2F%3E%3CmxCell%20id%3D%222%22%20value%3D%22Extract%20Product%20id%20and%20Warranty%20info%22%20style%3D%22rounded%3D1%3BwhiteSpace%3Dwrap%3Bhtml%3D1%3B%22%20vertex%3D%221%22%20parent%3D%221%22%3E%3CmxGeometry%20x%3D%2234%22%20y%3D%22180%22%20width%3D%22130%22%20height%3D%2240%22%20as%3D%22geometry%22%2F%3E%3C%2FmxCell%3E%3C%2Froot%3E%3C%2FmxGraphModel%3E&lt;/span&gt;" style="rounded=1;whiteSpace=wrap;html=1;" parent="1" vertex="1">
          <mxGeometry x="34" y="290" width="126" height="40" as="geometry" />
        </mxCell>
        <mxCell id="9L3M9KfpP5Nj1_16fEhw-7" value="Extract the product information and remove the non-english records&lt;span style=&quot;color: rgba(0, 0, 0, 0); font-family: monospace; font-size: 0px; text-align: start; text-wrap-mode: nowrap;&quot;&gt;%3CmxGraphModel%3E%3Croot%3E%3CmxCell%20id%3D%220%22%2F%3E%3CmxCell%20id%3D%221%22%20parent%3D%220%22%2F%3E%3CmxCell%20id%3D%222%22%20value%3D%22Extract%20Product%20id%20and%20Warranty%20info%22%20style%3D%22rounded%3D1%3BwhiteSpace%3Dwrap%3Bhtml%3D1%3B%22%20vertex%3D%221%22%20parent%3D%221%22%3E%3CmxGeometry%20x%3D%2234%22%20y%3D%22180%22%20width%3D%22130%22%20height%3D%2240%22%20as%3D%22geometry%22%2F%3E%3C%2FmxCell%3E%3C%2Froot%3E%3C%2FmxGraphModel%3E&lt;/span&gt;" style="rounded=1;whiteSpace=wrap;html=1;" parent="1" vertex="1">
          <mxGeometry x="34" y="422.12" width="136" height="47.88" as="geometry" />
        </mxCell>
        <mxCell id="9L3M9KfpP5Nj1_16fEhw-8" value="" style="endArrow=classic;html=1;rounded=0;" parent="1" edge="1">
          <mxGeometry width="50" height="50" relative="1" as="geometry">
            <mxPoint x="310" y="180" as="sourcePoint" />
            <mxPoint x="430" y="380" as="targetPoint" />
            <Array as="points">
              <mxPoint x="430" y="180" />
            </Array>
          </mxGeometry>
        </mxCell>
        <mxCell id="9L3M9KfpP5Nj1_16fEhw-9" value="" style="endArrow=classic;html=1;rounded=0;" parent="1" edge="1">
          <mxGeometry width="50" height="50" relative="1" as="geometry">
            <mxPoint x="290" y="440" as="sourcePoint" />
            <mxPoint x="380" y="440" as="targetPoint" />
          </mxGeometry>
        </mxCell>
        <mxCell id="9L3M9KfpP5Nj1_16fEhw-10" value="" style="shape=image;verticalLabelPosition=bottom;labelBackgroundColor=default;verticalAlign=top;aspect=fixed;imageAspect=0;image=data:image/png,iVBORw0KGgoAAAANSUhEUgAAAOQAAADdCAMAAACc/C7aAAAAYFBMVEX///8ArdQAq9MAp9EAqdIAptH4/f7k9PnP6/QArtR+zOTx+vzs+Pv0+/3o9vrg8vhxx+GW1ei14e8ztdjW7vbB5vGi2etIu9tewd7R7PWg2Oqy3+6P0udkw999y+M+uNmTwQumAAAK8ElEQVR4nN1da5eiMAxd2qLgY0RB8YH6///lFp1xQHnctCmFuWfPnpkPow1t05vkNvz7NzQOeSDyw+BfOyTmsQo0ZLr0PRKHCETwgEh9j8QdFt82BoHa+h6LK8xl8IJa+x6NI+Ti10hx9T0aN9hXJlI7n5Pv8ThBIKpGBn/S92xVzcZAXnyPiB9LWbdRz+vM95jYcRTBu5UL32Pixul9IssFO/c9KmaknzYG4u57VLw4NEyknsq973FxYvaxIZ9TGfseGCcS1WhkoArfI+PDpnGxPhbs34m58ubVWi7Yo++xcWHXOpF6KiPfo2NC0DqRwZ+hsEWL1/meyj+R8Fl1LNYS6i9Q2E/S+mbkzfcI7RGF3TbqBbvxPUZrNJHWN0yewp57duRjKne+R2mHdc+GfEAI38O0QxtprWPaFLadtL4t2JXvkVrgjtk4aQq7gxZriXCyFHbWSVrrmCyFLXAbA3n2PVozfPVynSrENCtA7aFyE1Tie7wm2IPHxw/CKVLYmDSRwSR9z3t9px9qchQWIq11TI/CXskTOb0KUEY6Pn4gv3yPmwQgVG6ayklR2Avx+HhN5YQqQBTSWp/KCVWAFoY2TknENDfyOt9WToXC0kjrm5ETETFRSWsdMvM9fghk0lrHJCgsnbS+TeUEREwfoiQqpkBh++o7gJWjrwBFthOpEY5dxGRGWusQuW8rutEsSqJi3BS2RZRExbgp7M3y+PjBmCksWt/pRzheERNa3+nHeHX4XaIkKkYrYjINlRsxUgrbLUqiYpwipj5R0g/Q6RZjFDFhpFXIWGBPY4wiJoy0ikDHxHtsXY9QxISR1qfTxMjf+CgsOO7v4y/GnsjIKkBrcAV+E5mmWyINjyTwa9Q7QFHSi5JeIS81LhETRlorwcUKm/lwTCImjLRWw0Qs3TWmChAmSqp7SyxxOSIKi5GYsFZ9BFPQo6GwmCjpvY6MFRPGQmG/QJr29mdgWWgkOnxsStRHYhwr8I1DxGS8uWYggRhDBQhzk2HDUC+YlSPQ4WMHXvOiw0j950IfGktsNlRj9g0TwvivAIEktOUgmAaFzaiktQ6wzuf5GjsYKrfWNs4ToLCYf+waI+ibPVaAZgLbUx2SOeyU9VkBwjiL6PQbIF/yVgEC2Wf3CTAHzyBfIiYwjuhJR2ExjC8KC5LWXlYGRqN+KCyW8O+/JABedvISPtuQ1jqwDJEPCouSVsBhgBTWQxYWq+9g2Qssazu8Dh8UJWEbaY192OAiJoy0otcix1kBAkcFE2swCzsohQVFSQrO8o+RwmKiJEqwi/mxISksWN+h+Hw0eTtcBejuYAdh2pHhdPiYKInqC7HYNByqmSg4HKKuAdRzDURhwYVFVqiARc5BKOwKDJXJhZqNqw82AEhaDR44djANQWFZSWsdYAVogGvsqcMyOHbt0j2FpYmSqLDNVfOAKEqiAhXo8Rr1DqooiQqwAuSUwoL1HfMnDYqYnHZioouSqABFTA4prIkoiQrvIiYTURIVYPjsjMKC9R1LRuJXxITFtcKWW4IU1pGICSyyWcuNfYqYBlP8gVkyJxTWXJREBdg5xIGIia++0w+QwrLr8K1ESVScPFWA7ERJVPhpJgreceDKcIPrhrkTE+X+Dgd8iJjsRUlUeKCw2MnFeYNs+AoQ2CmJVWMM8is2CjvHDmf9XIs9WzQLKqEkl4gJ7pQklFTxbcdzfX5YCkvrlCSUCu8Fx+4EdUI8e8SgU5KQqb2dQ+rwzS6d65Ubby036HA6fPTSeYOdIjxapYGx3ODH1SEDWHVKEio+W0TwQ4mY+t+E0WemWhh7WzBfr2xFTAydkpS6mZo5jIiJp1OSnk3DRQvW0Ky2Plgx7IcwLF9gu8WOwnJ1StJQgdHjBkVMFv3wwRQoBiFzgxgXFDFZvE6Or1PS00yTB45xEfMKEGenpCdkSvf2oGrIlMKydkr6MZMcALoVMfF2SvqByqkRoEsREyhKIkMoYmIGbBRnVAGyb+/ZZmVIzJe6EzFxtPdsg8xJTx0VMdGdGhwqCw2lpP4nQ6nDKyll+Zvq+ntF87KuKOwBeHpP4+Jjsj3soiz7ms30BM1mq3l22h2K612bLdoOANrGdCNi6snTP6xLk+1u08k0vvbnJFWyyVARUrwhKGIiUtiOcFXbJ/JiP0e31TraHvWffD53ivtxocNvuz2lF+B9sTegoNk213NfHylF9gueZ6TKYcMeEKWBRWSRzNgvAllbIJKQM+XvxPQhShIqjBd7+2R1pO2sTKci+EOMY0pYh19/E4Z2Mup4YKsE7q+VZUvYRGCKG/Y9laWhF6m4MUu8ltv4NWDCVDKLmF6uTCjBkvD/wP7+XLWUMJBZh/8stQgZcM9hBVlemkl6IyNYAQJ99kqpQFlmv/uRHUVK+gpmEdPqdl+MsHU+mB8dQScmG4AVIH4R0zza7S7bBy67XTR3KZweXoe/2W2PaRlZlWGVeAZcmhVJmV6LS+ZGqDlkJ6blfpELqVriqGcElt4u/KfPEjtG7PvhR4WOnpBoU8ngumNuvjJIM9FdogkCnPzRcyrTM6ufdi5iOt2CxgC4x1KZ2tbVK3ArYpqd4/eAELczzNncOihiMqkAbW7dmaleM6VgohfOmolmR8TT9H2tPLJQYTedmKJ7Q4bGBELeOfiwgwrQJufMMisaJ28Eu4hpdQ2ZqwUqtjaTmcIerLxNM4TMLakQesER8j2ru5t6iAgTO2rLqMPfMfmbpu+3UTLgl477s2+Jw7KWrQcCdfh9abK55asy+yFzC6UqSycmu1eeYhDyakyCOChsMYCNgZWZ9iImk7e7m0GbaXaeoFrYtnh2hjVOYoI+Nk0oLXpBriV7/YUpE/kgVHohn5voq2ebOxLM6WGxNYRSCdHVgq1EmxPqG3cMoBPE/MEMPuEaFOqZJxuDMiEk72fQC53wU/zzrMwcEHIKlEz7a71REROmQr1rmHzbGDyr9nFyadmh6+h87JEIfeCN282pa/Xlo3ifzSMXn163uyhbz55YZtGhOMbSIFtYZz1f4Ac8KgJlPSAI0vsxz/N7GsTl74qQkkW+Rj2lXeXUPX4y/PSqjTMk4C7LHXGebD8rO6t5dCmusbTL6rlAdZQ9HEA8REqLS9btF9bR4Sj8uegGVJdrF+MtDYxvF5hMn7YpQw6TCRXHs2ilSeLh16l1ouUhN3ASDiB+KU9LpbqcwuvFUMMz31LOM1f4Tdo1Bi7awmBhl/Q+XY3rJ1x4XXpeNhx0Stpa+MD6EHs181cp9FEpKuszbBqeKOdOUBPwErws6p5QL1NmDc8m8TWbr7pPXVOhY54z/yvo14XwYefrlVzVF/HocOfqqqnxwYOvfS3WyoaUYss/ib/YpcMyBPGS7r0aUul16vy9yPt0mFznE+pnUf7csDdMmpHBVtHthUhfJOa5WEVomP40wGmYE6UicH9UbUWYDKqJzI7OZ1NUW6HF5e8Jb6spAJurWzPlvRrtptKi6mKDVeIuGFNvQvTlYbC9+I71wg09EPLm621qTZg5oEEiPA6++fpwiVkXrTbR28rswp7vRBFq2FOCgixhSWU65qTWWBaB3ZEilLw756T20KvW2AkJGSxGuRU/8VUEBmaWafbrIKybC/uEmPcSMl54fCeuIWa7a5kkROwTUubbMbw83ghRce+sqDyKXiLf2tzKHQNm2SFJ9VSp590FIZ7/q7KaptJjsR/teUjGKrsciiQ55vc0zfNrUvYzONFJ238zpZY37SK5uQAAAABJRU5ErkJggg==;imageBorder=default;" parent="1" vertex="1">
          <mxGeometry x="381" y="390.00000000000006" width="88" height="85.3" as="geometry" />
        </mxCell>
        <mxCell id="9L3M9KfpP5Nj1_16fEhw-11" value="Product Table" style="rounded=0;whiteSpace=wrap;html=1;" parent="1" vertex="1">
          <mxGeometry x="184" y="500" width="120" height="25" as="geometry" />
        </mxCell>
        <mxCell id="9L3M9KfpP5Nj1_16fEhw-12" value="" style="sketch=0;outlineConnect=0;fontColor=#232F3E;gradientColor=none;fillColor=#7AA116;strokeColor=none;dashed=0;verticalLabelPosition=bottom;verticalAlign=top;align=center;html=1;fontSize=12;fontStyle=0;aspect=fixed;pointerEvents=1;shape=mxgraph.aws4.notebook;" parent="1" vertex="1">
          <mxGeometry x="457" y="235" width="28" height="32.12" as="geometry" />
        </mxCell>
        <mxCell id="9L3M9KfpP5Nj1_16fEhw-13" value="Embedding of Product Description column by&amp;nbsp;&lt;span style=&quot;color: rgb(199, 46, 15); background-color: rgb(246, 247, 249); font-family: Menlo, Monaco, Consolas, &amp;quot;Ubuntu Mono&amp;quot;, &amp;quot;Source Code Pro&amp;quot;, monospace, Consolas, &amp;quot;Courier New&amp;quot;, monospace; font-size: 13px; white-space: pre;&quot;&gt;databricks-gte-large-en&quot; model&lt;/span&gt;" style="rounded=1;whiteSpace=wrap;html=1;" parent="1" vertex="1">
          <mxGeometry x="485" y="412.65000000000003" width="259" height="40" as="geometry" />
        </mxCell>
        <mxCell id="9L3M9KfpP5Nj1_16fEhw-14" value="" style="sketch=0;outlineConnect=0;fontColor=#232F3E;gradientColor=none;fillColor=#7AA116;strokeColor=none;dashed=0;verticalLabelPosition=bottom;verticalAlign=top;align=center;html=1;fontSize=12;fontStyle=0;aspect=fixed;pointerEvents=1;shape=mxgraph.aws4.notebook;" parent="1" vertex="1">
          <mxGeometry x="600.5" y="370" width="28" height="32.12" as="geometry" />
        </mxCell>
        <mxCell id="9L3M9KfpP5Nj1_16fEhw-15" value="Creation of vector search endpoint, and vector index on top of product delta table" style="rounded=1;whiteSpace=wrap;html=1;" parent="1" vertex="1">
          <mxGeometry x="910" y="370" width="140" height="63.65" as="geometry" />
        </mxCell>
        <mxCell id="9L3M9KfpP5Nj1_16fEhw-16" value="" style="shape=image;verticalLabelPosition=bottom;labelBackgroundColor=default;verticalAlign=top;aspect=fixed;imageAspect=0;image=data:image/png,iVBORw0KGgoAAAANSUhEUgAAAOQAAADdCAMAAACc/C7aAAAAYFBMVEX///8ArdQAq9MAp9EAqdIAptH4/f7k9PnP6/QArtR+zOTx+vzs+Pv0+/3o9vrg8vhxx+GW1ei14e8ztdjW7vbB5vGi2etIu9tewd7R7PWg2Oqy3+6P0udkw999y+M+uNmTwQumAAAK8ElEQVR4nN1da5eiMAxd2qLgY0RB8YH6///lFp1xQHnctCmFuWfPnpkPow1t05vkNvz7NzQOeSDyw+BfOyTmsQo0ZLr0PRKHCETwgEh9j8QdFt82BoHa+h6LK8xl8IJa+x6NI+Ti10hx9T0aN9hXJlI7n5Pv8ThBIKpGBn/S92xVzcZAXnyPiB9LWbdRz+vM95jYcRTBu5UL32Pixul9IssFO/c9KmaknzYG4u57VLw4NEyknsq973FxYvaxIZ9TGfseGCcS1WhkoArfI+PDpnGxPhbs34m58ubVWi7Yo++xcWHXOpF6KiPfo2NC0DqRwZ+hsEWL1/meyj+R8Fl1LNYS6i9Q2E/S+mbkzfcI7RGF3TbqBbvxPUZrNJHWN0yewp57duRjKne+R2mHdc+GfEAI38O0QxtprWPaFLadtL4t2JXvkVrgjtk4aQq7gxZriXCyFHbWSVrrmCyFLXAbA3n2PVozfPVynSrENCtA7aFyE1Tie7wm2IPHxw/CKVLYmDSRwSR9z3t9px9qchQWIq11TI/CXskTOb0KUEY6Pn4gv3yPmwQgVG6ayklR2Avx+HhN5YQqQBTSWp/KCVWAFoY2TknENDfyOt9WToXC0kjrm5ETETFRSWsdMvM9fghk0lrHJCgsnbS+TeUEREwfoiQqpkBh++o7gJWjrwBFthOpEY5dxGRGWusQuW8rutEsSqJi3BS2RZRExbgp7M3y+PjBmCksWt/pRzheERNa3+nHeHX4XaIkKkYrYjINlRsxUgrbLUqiYpwipj5R0g/Q6RZjFDFhpFXIWGBPY4wiJoy0ikDHxHtsXY9QxISR1qfTxMjf+CgsOO7v4y/GnsjIKkBrcAV+E5mmWyINjyTwa9Q7QFHSi5JeIS81LhETRlorwcUKm/lwTCImjLRWw0Qs3TWmChAmSqp7SyxxOSIKi5GYsFZ9BFPQo6GwmCjpvY6MFRPGQmG/QJr29mdgWWgkOnxsStRHYhwr8I1DxGS8uWYggRhDBQhzk2HDUC+YlSPQ4WMHXvOiw0j950IfGktsNlRj9g0TwvivAIEktOUgmAaFzaiktQ6wzuf5GjsYKrfWNs4ToLCYf+waI+ibPVaAZgLbUx2SOeyU9VkBwjiL6PQbIF/yVgEC2Wf3CTAHzyBfIiYwjuhJR2ExjC8KC5LWXlYGRqN+KCyW8O+/JABedvISPtuQ1jqwDJEPCouSVsBhgBTWQxYWq+9g2Qssazu8Dh8UJWEbaY192OAiJoy0otcix1kBAkcFE2swCzsohQVFSQrO8o+RwmKiJEqwi/mxISksWN+h+Hw0eTtcBejuYAdh2pHhdPiYKInqC7HYNByqmSg4HKKuAdRzDURhwYVFVqiARc5BKOwKDJXJhZqNqw82AEhaDR44djANQWFZSWsdYAVogGvsqcMyOHbt0j2FpYmSqLDNVfOAKEqiAhXo8Rr1DqooiQqwAuSUwoL1HfMnDYqYnHZioouSqABFTA4prIkoiQrvIiYTURIVYPjsjMKC9R1LRuJXxITFtcKWW4IU1pGICSyyWcuNfYqYBlP8gVkyJxTWXJREBdg5xIGIia++0w+QwrLr8K1ESVScPFWA7ERJVPhpJgreceDKcIPrhrkTE+X+Dgd8iJjsRUlUeKCw2MnFeYNs+AoQ2CmJVWMM8is2CjvHDmf9XIs9WzQLKqEkl4gJ7pQklFTxbcdzfX5YCkvrlCSUCu8Fx+4EdUI8e8SgU5KQqb2dQ+rwzS6d65Ubby036HA6fPTSeYOdIjxapYGx3ODH1SEDWHVKEio+W0TwQ4mY+t+E0WemWhh7WzBfr2xFTAydkpS6mZo5jIiJp1OSnk3DRQvW0Ky2Plgx7IcwLF9gu8WOwnJ1StJQgdHjBkVMFv3wwRQoBiFzgxgXFDFZvE6Or1PS00yTB45xEfMKEGenpCdkSvf2oGrIlMKydkr6MZMcALoVMfF2SvqByqkRoEsREyhKIkMoYmIGbBRnVAGyb+/ZZmVIzJe6EzFxtPdsg8xJTx0VMdGdGhwqCw2lpP4nQ6nDKyll+Zvq+ntF87KuKOwBeHpP4+Jjsj3soiz7ms30BM1mq3l22h2K612bLdoOANrGdCNi6snTP6xLk+1u08k0vvbnJFWyyVARUrwhKGIiUtiOcFXbJ/JiP0e31TraHvWffD53ivtxocNvuz2lF+B9sTegoNk213NfHylF9gueZ6TKYcMeEKWBRWSRzNgvAllbIJKQM+XvxPQhShIqjBd7+2R1pO2sTKci+EOMY0pYh19/E4Z2Mup4YKsE7q+VZUvYRGCKG/Y9laWhF6m4MUu8ltv4NWDCVDKLmF6uTCjBkvD/wP7+XLWUMJBZh/8stQgZcM9hBVlemkl6IyNYAQJ99kqpQFlmv/uRHUVK+gpmEdPqdl+MsHU+mB8dQScmG4AVIH4R0zza7S7bBy67XTR3KZweXoe/2W2PaRlZlWGVeAZcmhVJmV6LS+ZGqDlkJ6blfpELqVriqGcElt4u/KfPEjtG7PvhR4WOnpBoU8ngumNuvjJIM9FdogkCnPzRcyrTM6ufdi5iOt2CxgC4x1KZ2tbVK3ArYpqd4/eAELczzNncOihiMqkAbW7dmaleM6VgohfOmolmR8TT9H2tPLJQYTedmKJ7Q4bGBELeOfiwgwrQJufMMisaJ28Eu4hpdQ2ZqwUqtjaTmcIerLxNM4TMLakQesER8j2ru5t6iAgTO2rLqMPfMfmbpu+3UTLgl477s2+Jw7KWrQcCdfh9abK55asy+yFzC6UqSycmu1eeYhDyakyCOChsMYCNgZWZ9iImk7e7m0GbaXaeoFrYtnh2hjVOYoI+Nk0oLXpBriV7/YUpE/kgVHohn5voq2ebOxLM6WGxNYRSCdHVgq1EmxPqG3cMoBPE/MEMPuEaFOqZJxuDMiEk72fQC53wU/zzrMwcEHIKlEz7a71REROmQr1rmHzbGDyr9nFyadmh6+h87JEIfeCN282pa/Xlo3ifzSMXn163uyhbz55YZtGhOMbSIFtYZz1f4Ac8KgJlPSAI0vsxz/N7GsTl74qQkkW+Rj2lXeXUPX4y/PSqjTMk4C7LHXGebD8rO6t5dCmusbTL6rlAdZQ9HEA8REqLS9btF9bR4Sj8uegGVJdrF+MtDYxvF5hMn7YpQw6TCRXHs2ilSeLh16l1ouUhN3ASDiB+KU9LpbqcwuvFUMMz31LOM1f4Tdo1Bi7awmBhl/Q+XY3rJ1x4XXpeNhx0Stpa+MD6EHs181cp9FEpKuszbBqeKOdOUBPwErws6p5QL1NmDc8m8TWbr7pPXVOhY54z/yvo14XwYefrlVzVF/HocOfqqqnxwYOvfS3WyoaUYss/ib/YpcMyBPGS7r0aUul16vy9yPt0mFznE+pnUf7csDdMmpHBVtHthUhfJOa5WEVomP40wGmYE6UicH9UbUWYDKqJzI7OZ1NUW6HF5e8Jb6spAJurWzPlvRrtptKi6mKDVeIuGFNvQvTlYbC9+I71wg09EPLm621qTZg5oEEiPA6++fpwiVkXrTbR28rswp7vRBFq2FOCgixhSWU65qTWWBaB3ZEilLw756T20KvW2AkJGSxGuRU/8VUEBmaWafbrIKybC/uEmPcSMl54fCeuIWa7a5kkROwTUubbMbw83ghRce+sqDyKXiLf2tzKHQNm2SFJ9VSp590FIZ7/q7KaptJjsR/teUjGKrsciiQ55vc0zfNrUvYzONFJ238zpZY37SK5uQAAAABJRU5ErkJggg==;imageBorder=default;" parent="1" vertex="1">
          <mxGeometry x="790" y="390.00000000000006" width="88" height="85.3" as="geometry" />
        </mxCell>
        <mxCell id="9L3M9KfpP5Nj1_16fEhw-17" value="Product Table with Embeddings" style="rounded=0;whiteSpace=wrap;html=1;" parent="1" vertex="1">
          <mxGeometry x="774" y="490" width="120" height="40" as="geometry" />
        </mxCell>
        <mxCell id="9L3M9KfpP5Nj1_16fEhw-18" value="" style="endArrow=classic;html=1;rounded=0;" parent="1" edge="1">
          <mxGeometry width="50" height="50" relative="1" as="geometry">
            <mxPoint x="520" y="475" as="sourcePoint" />
            <mxPoint x="740" y="475" as="targetPoint" />
          </mxGeometry>
        </mxCell>
        <mxCell id="9L3M9KfpP5Nj1_16fEhw-19" value="" style="sketch=0;outlineConnect=0;fontColor=#232F3E;gradientColor=none;fillColor=#8C4FFF;strokeColor=none;dashed=0;verticalLabelPosition=bottom;verticalAlign=top;align=center;html=1;fontSize=12;fontStyle=0;aspect=fixed;pointerEvents=1;shape=mxgraph.aws4.endpoint;" parent="1" vertex="1">
          <mxGeometry x="1070" y="393.65" width="78" height="78" as="geometry" />
        </mxCell>
        <mxCell id="9L3M9KfpP5Nj1_16fEhw-20" value="Vector Search Endpoint" style="rounded=0;whiteSpace=wrap;html=1;" parent="1" vertex="1">
          <mxGeometry x="1049" y="485" width="120" height="40" as="geometry" />
        </mxCell>
        <mxCell id="9L3M9KfpP5Nj1_16fEhw-21" value="" style="endArrow=classic;html=1;rounded=0;" parent="1" edge="1">
          <mxGeometry width="50" height="50" relative="1" as="geometry">
            <mxPoint x="910" y="460" as="sourcePoint" />
            <mxPoint x="1060" y="460" as="targetPoint" />
          </mxGeometry>
        </mxCell>
        <mxCell id="9L3M9KfpP5Nj1_16fEhw-22" value="Warranty and customer table join on product id" style="rounded=1;whiteSpace=wrap;html=1;" parent="1" vertex="1">
          <mxGeometry x="460" y="302.12" width="126" height="40" as="geometry" />
        </mxCell>
        <mxCell id="9L3M9KfpP5Nj1_16fEhw-23" value="" style="sketch=0;outlineConnect=0;fontColor=#232F3E;gradientColor=none;fillColor=#7AA116;strokeColor=none;dashed=0;verticalLabelPosition=bottom;verticalAlign=top;align=center;html=1;fontSize=12;fontStyle=0;aspect=fixed;pointerEvents=1;shape=mxgraph.aws4.notebook;" parent="1" vertex="1">
          <mxGeometry x="966" y="310" width="28" height="32.12" as="geometry" />
        </mxCell>
        <mxCell id="9L3M9KfpP5Nj1_16fEhw-24" value="Assembling of RAG, creation of chain and employing the&amp;nbsp;&lt;span style=&quot;color: rgb(199, 46, 15); background-color: rgb(246, 247, 249); font-family: Menlo, Monaco, Consolas, &amp;quot;Ubuntu Mono&amp;quot;, &amp;quot;Source Code Pro&amp;quot;, monospace, Consolas, &amp;quot;Courier New&amp;quot;, monospace; font-size: 13px; white-space: pre;&quot;&gt;databricks-meta-llama-3-1-70b-instruct as the generation model&lt;/span&gt;" style="rounded=1;whiteSpace=wrap;html=1;" parent="1" vertex="1">
          <mxGeometry x="1180" y="389" width="480" height="63.65" as="geometry" />
        </mxCell>
        <mxCell id="YSm4HyIPbX82FGBz20lu-1" value="" style="shape=image;html=1;verticalAlign=top;verticalLabelPosition=bottom;labelBackgroundColor=#ffffff;imageAspect=0;aspect=fixed;image=https://cdn1.iconfinder.com/data/icons/material-core/18/drive-site-128.png" vertex="1" parent="1">
          <mxGeometry x="1780" y="371.83" width="98" height="98" as="geometry" />
        </mxCell>
        <mxCell id="XV9-KUknoKk2IqiuL-_Q-1" value="" style="shape=actor;whiteSpace=wrap;html=1;" vertex="1" parent="1">
          <mxGeometry x="2080" y="389" width="40" height="60" as="geometry" />
        </mxCell>
        <mxCell id="XV9-KUknoKk2IqiuL-_Q-2" value="User" style="rounded=1;whiteSpace=wrap;html=1;" vertex="1" parent="1">
          <mxGeometry x="2065" y="468" width="90" height="30" as="geometry" />
        </mxCell>
        <mxCell id="XV9-KUknoKk2IqiuL-_Q-3" value="" style="endArrow=classic;html=1;rounded=0;entryX=1;entryY=1;entryDx=0;entryDy=0;" edge="1" parent="1">
          <mxGeometry width="50" height="50" relative="1" as="geometry">
            <mxPoint x="2042" y="445.73" as="sourcePoint" />
            <mxPoint x="1910" y="445.55999999999995" as="targetPoint" />
          </mxGeometry>
        </mxCell>
        <mxCell id="XV9-KUknoKk2IqiuL-_Q-4" value="Response" style="rounded=1;whiteSpace=wrap;html=1;" vertex="1" parent="1">
          <mxGeometry x="1920" y="330" width="120" height="50" as="geometry" />
        </mxCell>
        <mxCell id="XV9-KUknoKk2IqiuL-_Q-5" value="" style="endArrow=classic;html=1;rounded=0;" edge="1" parent="1">
          <mxGeometry width="50" height="50" relative="1" as="geometry">
            <mxPoint x="1920" y="402" as="sourcePoint" />
            <mxPoint x="2040" y="402" as="targetPoint" />
          </mxGeometry>
        </mxCell>
        <mxCell id="XV9-KUknoKk2IqiuL-_Q-7" value="User Query" style="rounded=1;whiteSpace=wrap;html=1;" vertex="1" parent="1">
          <mxGeometry x="1930" y="470" width="120" height="50" as="geometry" />
        </mxCell>
        <mxCell id="XV9-KUknoKk2IqiuL-_Q-8" value="" style="endArrow=classic;html=1;rounded=0;entryX=1;entryY=1;entryDx=0;entryDy=0;" edge="1" parent="1">
          <mxGeometry width="50" height="50" relative="1" as="geometry">
            <mxPoint x="1770" y="434.09" as="sourcePoint" />
            <mxPoint x="1680" y="433.6499999999999" as="targetPoint" />
          </mxGeometry>
        </mxCell>
        <mxCell id="XV9-KUknoKk2IqiuL-_Q-9" value="Invoke Chain" style="rounded=1;whiteSpace=wrap;html=1;" vertex="1" parent="1">
          <mxGeometry x="1690" y="458" width="70" height="40" as="geometry" />
        </mxCell>
        <mxCell id="XV9-KUknoKk2IqiuL-_Q-10" value="" style="endArrow=classic;html=1;rounded=0;" edge="1" parent="1">
          <mxGeometry width="50" height="50" relative="1" as="geometry">
            <mxPoint x="1680" y="403.12" as="sourcePoint" />
            <mxPoint x="1760" y="402.12" as="targetPoint" />
          </mxGeometry>
        </mxCell>
        <mxCell id="XV9-KUknoKk2IqiuL-_Q-11" value="RAG model Response" style="rounded=1;whiteSpace=wrap;html=1;" vertex="1" parent="1">
          <mxGeometry x="1680" y="335.3" width="70" height="40" as="geometry" />
        </mxCell>
      </root>
    </mxGraphModel>
  </diagram>
</mxfile>
